<?xml version="1.0" standalone="no"?>
<!DOCTYPE svg PUBLIC "-//W3C//DTD SVG 20010904//EN"
 "http://www.w3.org/TR/2001/REC-SVG-20010904/DTD/svg10.dtd">
<svg version="1.0" xmlns="http://www.w3.org/2000/svg"
 width="1216.000000pt" height="1216.000000pt" viewBox="0 0 1216.000000 1216.000000"
 preserveAspectRatio="xMidYMid meet">
<metadata>
Created by potrace 1.14, written by Peter Selinger 2001-2017
</metadata>
<g transform="translate(0.000000,1216.000000) scale(0.100000,-0.100000)"
fill="#000000" stroke="none">
<path d="M7287 10869 c-27 -4 -70 -10 -95 -14 -25 -3 -48 -8 -51 -10 -6 -3
-56 -13 -106 -20 -11 -2 -20 -4 -20 -5 0 -1 -9 -3 -20 -5 -11 -2 -38 -9 -60
-16 -22 -6 -62 -18 -90 -26 -79 -24 -309 -116 -317 -128 -4 -5 -8 -7 -8 -3 0
19 -388 -208 -398 -233 -2 -5 -8 -9 -13 -9 -10 0 -108 -70 -139 -100 -24 -21
-58 -50 -119 -99 -50 -39 -57 -42 -105 -38 -35 2 -66 -3 -98 -16 l-48 -20 -35
27 c-93 71 -183 67 -241 -10 -31 -40 -55 -99 -45 -109 3 -4 6 -10 7 -13 2 -25
17 -72 23 -72 3 0 15 -16 25 -35 18 -33 18 -37 2 -89 -20 -64 -17 -99 17 -179
2 -4 -69 -91 -98 -121 -50 -52 -225 -313 -225 -335 0 -5 -4 -11 -8 -13 -7 -3
-132 -249 -132 -260 0 -3 -8 -23 -17 -44 -9 -22 -18 -43 -19 -49 -1 -5 -13
-44 -27 -85 -74 -217 -91 -330 -92 -605 0 -178 9 -229 45 -240 46 -15 57 5
105 193 36 137 116 383 141 431 8 14 14 29 14 33 0 8 46 112 60 138 5 8 23 44
41 80 32 64 117 210 128 220 4 3 12 17 20 32 8 15 22 37 33 47 10 11 18 23 18
26 0 16 178 244 223 286 l29 26 51 -25 c57 -27 57 -27 107 -19 19 3 41 3 47
-1 6 -4 448 -442 980 -972 1038 -1034 1274 -1265 1313 -1285 89 -46 227 1 279
95 33 60 35 162 4 206 -29 41 -353 370 -1210 1230 -889 893 -1057 1066 -1047
1076 2 3 4 27 5 54 3 80 3 80 149 177 118 79 227 134 370 187 107 39 288 90
340 95 14 2 25 4 25 5 0 2 27 7 80 14 125 18 203 25 325 27 102 2 121 8 127
48 3 24 13 144 18 241 18 327 19 295 -8 307 -27 12 -185 13 -260 2z m167 -139
c-8 -230 -17 -327 -31 -341 -5 -5 -67 -11 -138 -15 -135 -6 -200 -11 -200 -14
0 -1 -16 -3 -35 -6 -111 -14 -397 -92 -485 -133 -11 -5 -51 -24 -90 -42 -88
-40 -229 -119 -233 -130 -2 -5 -7 -7 -12 -4 -5 3 -14 -1 -22 -8 -7 -7 -48 -36
-91 -66 l-79 -53 -79 79 -79 78 23 25 c13 14 44 41 68 61 116 95 157 127 177
138 11 6 26 17 34 24 35 34 195 130 319 189 94 46 287 126 322 134 9 2 26 6
36 8 11 3 29 10 40 16 12 6 21 9 21 6 0 -3 16 2 35 10 19 8 35 12 35 9 0 -3 8
-1 18 4 9 5 31 11 47 14 17 3 39 8 50 10 83 18 112 23 195 32 36 4 66 9 68 10
2 2 22 2 45 1 41 -1 42 -2 41 -36z m-1962 -657 c10 -9 18 -24 18 -33 0 -16
-29 -48 -58 -65 -18 -10 -62 33 -62 61 0 49 64 72 102 37z m378 -142 c71 -71
131 -139 135 -151 4 -12 1 -30 -9 -44 -28 -43 -177 -195 -227 -232 l-49 -36
-38 28 c-62 46 -252 246 -252 265 0 10 57 76 128 147 119 120 154 151 176 152
5 0 66 -58 136 -129z m258 -423 c48 -46 465 -461 927 -923 814 -815 1187
-1195 1221 -1244 38 -54 -35 -154 -107 -143 -17 2 -33 11 -36 18 -3 8 -9 14
-13 14 -12 0 -191 174 -674 652 -773 766 -1561 1558 -1559 1567 4 17 136 141
150 141 2 0 43 -37 91 -82z m-650 22 c17 -16 32 -32 32 -35 0 -6 -2 -9 -51
-65 -17 -19 -45 -53 -62 -74 -18 -22 -40 -47 -49 -57 -28 -30 -188 -266 -188
-278 0 -6 -4 -11 -10 -11 -5 0 -10 -6 -10 -14 0 -8 -3 -16 -7 -18 -18 -7 -235
-449 -238 -483 0 -5 -4 -16 -8 -22 -5 -7 -10 -23 -12 -34 -3 -12 -7 -24 -10
-27 -10 -10 -5 43 9 96 17 61 15 54 23 92 3 17 10 33 14 36 5 3 7 9 4 13 -5 8
43 151 81 241 56 133 211 409 235 418 5 2 9 8 9 14 0 10 125 169 169 216 27
28 29 28 69 -8z"/>
<path d="M3839 8836 c-95 -49 -126 -156 -71 -242 34 -56 88 -83 152 -77 53 5
79 20 116 68 39 51 44 120 13 175 -43 76 -142 112 -210 76z m98 -105 c10 -1
23 -26 29 -58 3 -16 -28 -43 -55 -48 -30 -6 -61 28 -61 65 0 32 23 51 55 45
11 -2 25 -4 32 -4z"/>
<path d="M6125 8670 c-52 -8 -79 -23 -109 -63 -47 -62 -49 -152 -4 -201 10
-11 18 -23 18 -26 0 -8 43 -29 84 -41 69 -20 175 42 194 114 32 120 -65 234
-183 217z m59 -125 c41 -41 18 -97 -39 -97 -32 0 -42 9 -49 43 -9 54 51 91 88
54z"/>
<path d="M4203 8549 c-23 -8 -37 -38 -28 -60 3 -8 29 -29 58 -46 65 -39 160
-132 212 -209 51 -74 70 -94 94 -94 55 0 55 99 1 150 -3 3 -19 23 -35 45 -100
134 -243 236 -302 214z"/>
<path d="M5780 8526 c-3 -2 -21 -7 -40 -10 -143 -23 -337 -120 -470 -236 -122
-106 -170 -161 -170 -196 0 -37 57 -58 84 -31 15 13 136 123 176 157 118 104
269 172 465 210 69 14 85 24 85 54 -1 37 -22 52 -75 55 -28 1 -53 0 -55 -3z"/>
<path d="M5455 7928 c-27 -4 -59 -9 -70 -11 -26 -5 -46 -44 -36 -71 7 -18 17
-21 87 -23 486 -17 492 -17 668 -74 122 -38 170 -47 180 -31 3 5 7 20 10 35 4
21 -2 31 -23 47 -52 36 -264 98 -397 115 -20 2 -55 7 -78 11 -62 9 -284 11
-341 2z"/>
<path d="M4522 7808 c-28 -29 -59 -62 -69 -74 -84 -98 -113 -132 -147 -173
-53 -62 -265 -272 -351 -346 -38 -33 -78 -69 -90 -80 -19 -19 -166 -146 -174
-152 -2 -1 -4 -58 -6 -126 -1 -68 -5 -129 -9 -135 -4 -7 -4 -12 1 -12 4 0 7
-30 5 -67 -3 -86 -3 -68 1 -215 4 -135 11 -158 52 -158 48 0 49 12 52 338 l2
306 63 61 c78 73 152 140 242 220 96 84 236 228 341 351 74 86 91 105 131 145
41 41 44 41 147 -4 31 -14 58 -26 60 -25 1 0 22 -8 47 -19 25 -12 83 -37 130
-58 100 -43 103 -45 127 -93 52 -103 99 -187 106 -190 4 -2 7 -9 7 -16 0 -11
26 -63 86 -171 24 -44 42 -52 181 -81 15 -3 30 -7 35 -10 5 -3 21 -8 36 -10
15 -3 117 -27 227 -54 110 -28 210 -52 223 -55 17 -4 32 -26 58 -83 100 -216
206 -422 222 -431 26 -14 59 -3 65 20 10 36 -20 110 -158 394 -40 83 -82 160
-94 172 -12 12 -40 27 -64 33 -23 6 -64 17 -92 25 -27 8 -61 16 -75 19 -44 9
-62 13 -245 61 -99 26 -190 49 -202 52 -14 3 -32 25 -51 62 -16 31 -52 99 -79
151 -28 52 -67 128 -88 168 -28 55 -45 76 -69 86 -17 7 -53 23 -81 36 -27 12
-68 30 -90 40 -22 10 -56 24 -76 33 -102 46 -272 117 -279 117 -4 0 -30 -24
-58 -52z"/>
<path d="M6490 7769 c-38 -16 -61 -40 -85 -92 -52 -111 23 -224 155 -232 48
-3 112 42 141 97 24 47 26 73 9 122 -29 89 -134 139 -220 105z m103 -117 c33
-29 15 -77 -36 -95 -23 -9 -57 26 -57 58 0 30 36 66 59 58 9 -3 24 -13 34 -21z"/>
<path d="M976 5396 c-14 -45 -48 -157 -76 -251 -53 -175 -78 -259 -85 -285 -2
-8 -4 -15 -5 -15 -1 0 -3 -7 -5 -15 -1 -8 -10 -40 -20 -70 -41 -133 -56 -187
-61 -210 -3 -13 -10 -30 -15 -36 -5 -7 -9 -16 -8 -20 1 -5 -1 -16 -4 -24 -3
-8 -18 -55 -32 -105 -14 -49 -40 -135 -56 -190 -17 -55 -39 -129 -49 -165 -41
-143 -24 -127 -140 -132 l-55 -3 1 -382 c1 -272 -2 -383 -10 -384 -6 -1 -50
-1 -98 -1 l-88 -1 0 -196 0 -197 215 0 c118 -1 215 2 216 5 1 3 2 92 2 196 l2
190 117 0 c64 1 120 3 123 6 3 3 6 57 8 120 l2 114 312 0 c172 -1 315 -4 319
-8 4 -4 7 -129 7 -277 l0 -270 257 1 256 1 0 89 c0 53 -4 90 -10 92 -6 3 -34
4 -62 4 -29 0 -56 3 -62 7 -6 3 -13 2 -16 -3 -3 -5 -15 -7 -27 -4 -16 5 -19
12 -17 41 l3 36 93 -1 c50 0 93 2 93 6 1 3 3 206 3 451 l2 446 -33 1 c-18 0
-39 3 -46 6 -11 4 -37 70 -42 107 -1 3 -9 32 -19 65 -10 33 -19 65 -20 70 -3
14 -55 182 -73 235 -8 25 -17 54 -19 66 -2 12 -10 40 -18 63 -9 22 -13 41 -9
41 3 0 1 6 -4 13 -6 6 -16 35 -22 62 -7 28 -17 59 -21 70 -5 11 -23 70 -40
130 -17 61 -37 126 -44 145 -8 19 -14 38 -15 43 -1 4 -1 8 -2 10 0 1 -2 9 -4
17 -1 8 -26 92 -54 185 -28 94 -51 176 -51 181 0 8 -75 11 -235 11 l-235 0
-24 -81z m258 -763 c10 -64 14 -81 25 -115 9 -29 13 -50 26 -123 2 -11 4 -20
5 -20 2 0 5 -16 14 -60 3 -16 8 -41 11 -54 2 -13 7 -49 11 -80 3 -31 8 -65 10
-76 6 -31 17 -109 17 -122 0 -7 8 -13 18 -13 10 0 20 -4 23 -8 5 -8 13 -69 22
-152 6 -61 15 -125 19 -137 2 -6 -5 -13 -16 -16 -10 -3 -17 -1 -13 4 3 5 0 9
-6 9 -6 0 -9 4 -6 9 3 5 -1 14 -9 21 -19 16 -19 29 1 51 28 31 10 46 -20 16
-27 -27 -42 -36 -31 -17 4 6 1 18 -6 26 -19 22 -26 1 -24 -64 l3 -57 -164 0
c-142 0 -163 2 -158 15 5 14 9 26 18 68 2 9 9 37 16 62 7 25 14 56 17 70 2 14
10 50 18 80 8 30 16 66 19 80 2 14 21 97 41 185 20 88 40 180 45 205 5 25 12
56 15 70 3 14 8 39 11 55 3 17 7 35 8 40 2 6 6 27 11 48 4 20 11 37 15 37 4 0
11 -17 14 -37z m133 -955 c9 -20 7 -23 -12 -24 -16 -1 -22 3 -20 15 2 9 4 19
4 24 2 15 18 6 28 -15z"/>
<path d="M6014 4812 l1 -667 38 -3 c20 -2 37 -9 38 -15 0 -7 2 -25 3 -40 3
-45 -6 -51 -92 -51 -83 0 -83 1 -73 -47 0 -4 17 -6 36 -5 l35 1 1 -50 c2 -80
2 -80 34 -81 79 -4 70 29 70 -276 l0 -273 97 -1 c54 0 101 -3 105 -8 4 -4 8
-31 8 -59 l1 -53 -91 2 c-49 1 -97 0 -105 -2 -13 -3 -15 -34 -14 -206 1 -112
2 -208 3 -213 0 -6 32 -10 75 -9 68 1 75 -1 80 -20 5 -22 7 -22 355 -22 349
-1 350 -1 353 20 3 21 6 21 308 23 168 1 314 2 325 2 18 1 21 8 20 61 0 59
-15 87 -38 73 -8 -5 -63 -6 -121 -4 -9 1 -13 12 -12 34 2 18 7 31 14 29 7 -1
12 1 12 5 0 5 33 8 72 8 l73 0 1 140 c0 77 -2 145 -5 150 -3 6 -15 10 -26 10
-19 0 -20 7 -21 225 -1 124 -2 233 -3 243 -1 16 -19 17 -260 17 l-259 -1 2
-272 1 -272 -37 -1 c-21 0 -40 -3 -43 -5 -3 -3 -27 -3 -55 1 -27 4 -50 4 -51
1 -3 -24 -8 -44 -13 -49 -7 -6 -275 -10 -293 -4 -10 3 -12 90 -11 386 1 209 5
388 10 398 7 15 31 16 230 13 123 -1 233 -3 244 -4 20 -1 21 -6 19 -67 -1 -45
2 -67 10 -70 7 -3 123 -6 259 -7 244 -2 246 -2 246 -23 0 -25 12 -31 58 -29
22 2 30 -1 24 -9 -5 -6 -10 -29 -11 -51 -3 -47 -7 -53 -23 -37 -7 7 -16 12
-20 12 -14 0 -9 -27 7 -40 9 -7 15 -8 15 -2 0 5 8 8 19 5 21 -5 31 19 31 83
l0 41 72 0 c70 -1 72 -1 79 26 7 26 -4 47 -15 28 -4 -5 -18 -6 -33 -2 -21 6
-30 16 -38 47 -14 54 -47 113 -89 159 -20 22 -36 43 -36 47 0 3 -25 14 -55 23
-30 10 -55 22 -55 26 0 5 -6 9 -14 9 -8 0 -16 3 -18 8 -5 12 -109 75 -124 75
-23 0 -17 10 38 62 53 51 136 169 155 221 35 93 35 92 35 284 0 175 -9 231
-58 361 -46 122 -106 196 -204 252 -51 30 -132 63 -172 72 -9 2 -25 8 -36 14
-11 6 -222 12 -553 15 l-535 6 0 -668z m831 184 c105 -16 143 -54 163 -166 12
-65 7 -275 -7 -311 -5 -15 -7 -29 -5 -32 9 -9 -27 -71 -55 -95 -38 -33 -83
-51 -138 -57 -105 -11 -230 -13 -244 -4 -8 5 -9 9 -2 9 6 0 10 8 8 18 -2 9 -4
17 -5 17 -1 0 -2 14 -3 32 -1 17 1 29 5 26 5 -2 4 7 -2 21 -6 16 -6 27 0 31 7
4 6 13 0 25 -6 10 -7 21 -3 23 5 3 8 110 8 239 l-1 234 116 -2 c63 0 138 -4
165 -8z m-498 -965 c17 -2 12 -40 -7 -45 -8 -2 -64 -3 -125 -2 -102 1 -110 3
-111 21 0 11 1 23 3 26 2 5 199 6 240 0z m-254 -80 c4 -1 7 -5 7 -11 0 -5 -16
-10 -35 -10 -25 0 -35 4 -35 15 0 12 7 14 28 11 15 -2 30 -5 35 -5z m-3 -58
c0 -8 -12 -13 -30 -13 -18 0 -30 5 -30 13 0 8 12 13 30 13 18 0 30 -5 30 -13z"/>
<path d="M8955 5473 c-8 -2 -11 -476 -5 -1179 l0 -60 118 1 c154 1 152 1 150
-46 -1 -28 -6 -39 -17 -40 -9 0 -70 -1 -136 -2 l-120 -2 0 -675 c0 -371 2
-693 5 -715 l5 -40 92 0 c51 0 93 -4 93 -9 0 -5 6 -3 13 3 8 6 16 8 20 5 9
-10 229 -6 239 4 6 6 10 292 11 703 l2 694 28 -2 c15 -1 28 1 29 5 1 4 2 311
3 683 l2 676 -261 0 c-144 0 -265 -2 -271 -4z"/>
<path d="M10459 5476 c-1 0 -2 -103 -3 -228 l-1 -228 50 -1 c27 0 149 0 270 0
l220 0 0 -1152 0 -1152 250 -1 c161 -1 252 2 257 9 14 22 -5 38 -41 37 -59 -3
-61 -2 -61 34 0 34 0 34 50 38 28 1 50 0 50 -4 0 -4 10 -4 22 1 21 8 22 14 24
112 1 57 2 105 3 105 0 1 19 -2 41 -6 22 -4 42 -5 44 -2 7 7 95 6 102 0 14
-15 42 6 46 33 3 17 2 31 -1 33 -3 2 -58 3 -121 2 l-116 -1 1 955 0 955 268 0
c230 0 267 2 268 15 0 8 2 25 3 38 2 12 0 22 -3 22 -3 0 -6 11 -6 25 0 14 2
25 5 25 8 0 4 115 -4 128 -4 7 -3 12 2 12 5 0 8 10 6 23 -1 12 -3 22 -4 22 -1
0 -3 12 -4 28 -1 15 1 27 4 27 7 0 5 74 -3 86 -4 7 -294 11 -811 11 -443 0
-807 0 -807 -1z m1072 -2376 c1 -3 2 -16 3 -30 1 -25 0 -25 -90 -26 l-90 -1 2
31 c1 17 2 31 3 32 6 4 171 -2 172 -6z"/>
<path d="M3987 5464 c-1 -1 -49 -4 -107 -8 -128 -8 -155 -12 -228 -37 -31 -11
-61 -21 -67 -23 -92 -25 -233 -152 -284 -256 -17 -36 -33 -75 -36 -88 -2 -12
-6 -26 -9 -30 -5 -9 -12 -40 -25 -123 -8 -48 -6 -223 3 -274 20 -116 70 -240
127 -311 17 -21 64 -74 105 -116 40 -43 73 -79 71 -79 -1 -1 -49 -3 -107 -4
-58 -2 -111 -3 -117 -4 -8 -1 -13 -14 -13 -31 l0 -31 260 2 c143 2 263 -1 267
-4 4 -4 8 -51 10 -105 1 -53 4 -101 5 -107 1 -6 80 -10 215 -9 l213 1 0 -31
c2 -103 0 -523 -3 -586 l-2 -75 -285 0 -285 0 0 227 c0 126 -2 228 -5 228 -13
1 -348 1 -447 1 l-113 -1 0 -29 c0 -35 7 -38 98 -36 l72 1 0 -47 0 -47 -82 1
-83 2 -1 45 -1 45 -91 1 c-51 0 -92 -3 -93 -8 -1 -4 -1 -17 -1 -28 0 -60 -5
-57 92 -56 l90 2 1 -51 c1 -27 2 -94 3 -147 l1 -98 45 -1 c25 -1 50 0 55 1 6
1 48 2 95 3 l85 1 3 -144 c3 -174 3 -205 1 -216 -1 -5 -1 -23 0 -40 l1 -30
615 0 615 -1 1 66 c2 102 7 335 8 347 1 6 26 10 67 10 36 -1 68 3 71 8 3 4 7
192 9 417 l4 409 -40 0 c-40 0 -40 0 -40 40 l0 39 -72 0 c-40 0 -185 0 -321 0
l-248 1 3 32 3 33 160 1 c88 1 190 3 228 3 37 1 67 4 67 9 0 16 -249 162 -276
162 -8 0 -14 5 -14 10 0 6 -6 10 -12 10 -7 0 -94 40 -194 90 -203 100 -250
136 -290 225 -46 100 -29 271 33 326 54 47 109 62 230 62 175 0 262 -73 288
-243 9 -62 17 -72 50 -65 32 7 131 15 260 21 66 3 123 11 127 17 3 5 5 20 3
31 -2 12 -6 46 -10 76 -11 88 -12 92 -28 148 -22 72 -65 169 -98 217 -33 50
-112 128 -148 146 -14 8 -28 16 -31 19 -11 11 -66 33 -77 31 -7 -1 -13 4 -13
10 0 7 -3 9 -6 6 -4 -3 -16 -1 -27 4 -11 6 -31 13 -46 15 -69 9 -278 23 -284
18z"/>
<path d="M8811 4230 c-13 -9 -8 -80 6 -81 7 0 33 0 58 0 80 0 76 -3 73 43 l-3
42 -63 1 c-35 0 -67 -2 -71 -5z"/>
<path d="M4734 4103 c-2 -7 -6 -20 -9 -28 -2 -9 2 -18 10 -21 24 -10 158 -11
178 -2 19 10 24 58 5 59 -103 7 -181 3 -184 -8z"/>
<path d="M400 4023 c1 -5 7 -19 14 -32 12 -21 12 -28 -2 -49 -11 -17 -12 -26
-4 -34 8 -8 14 -4 23 16 l13 27 12 -22 c6 -12 19 -23 27 -25 14 -2 14 1 0 32
-14 29 -15 37 -3 59 18 33 3 46 -20 17 -18 -22 -19 -22 -25 -2 -6 19 -35 29
-35 13z"/>
<path d="M0 3931 l0 -40 183 1 182 1 -1 36 -1 36 -182 3 -181 2 0 -39z"/>
<path d="M2046 3933 c-13 -14 -5 -21 19 -17 14 2 25 2 25 0 0 -14 -44 -76 -53
-76 -7 0 -7 -4 1 -12 16 -16 94 -19 89 -4 -2 6 -16 11 -30 10 -29 0 -29 -1 20
71 7 11 13 22 13 25 0 8 -76 10 -84 3z"/>
<path d="M6864 3801 c-2 -2 -16 -4 -31 -5 -20 -1 -29 -7 -31 -22 -3 -20 1 -21
125 -20 125 1 128 1 129 24 1 18 -4 22 -30 23 -17 0 -60 1 -94 2 -35 1 -65 0
-68 -2z"/>
<path d="M2043 3720 c0 -43 4 -60 14 -60 7 0 13 9 13 20 0 11 5 20 11 20 6 0
13 -9 16 -20 3 -11 12 -20 19 -20 17 0 18 22 3 37 -8 8 -8 13 0 17 17 11 13
53 -5 60 -9 3 -28 6 -43 6 -28 0 -28 -1 -28 -60z m54 32 c13 -8 5 -26 -14 -29
-7 -2 -13 6 -13 17 0 21 7 25 27 12z"/>
<path d="M2037 3604 c-11 -11 3 -24 18 -17 12 4 15 -5 15 -46 0 -39 4 -51 15
-51 11 0 15 12 15 46 0 37 4 47 20 51 11 3 20 9 20 14 0 10 -93 12 -103 3z"/>
<path d="M7613 3570 c-18 -7 -21 -16 -21 -64 l1 -56 33 0 c64 0 84 80 29 115
-13 9 -28 10 -42 5z m43 -45 c5 -29 -5 -55 -22 -55 -10 0 -14 12 -14 41 0 32
3 40 17 37 9 -2 18 -12 19 -23z"/>
<path d="M4184 3512 c-6 -4 -10 -27 -9 -51 1 -42 3 -45 32 -48 17 -2 34 1 38
7 4 6 -4 10 -19 10 -16 0 -26 6 -26 15 0 8 3 14 8 14 19 -3 33 2 27 11 -3 5
-13 6 -22 3 -11 -4 -14 -2 -11 8 2 7 15 16 29 20 13 4 20 8 14 9 -5 1 -19 3
-30 5 -11 2 -25 1 -31 -3z"/>
<path d="M2038 3438 c-3 -7 -1 -20 3 -28 4 -8 10 -27 13 -42 7 -30 33 -61 46
-53 5 3 12 20 16 37 3 18 11 40 18 50 8 13 7 21 -2 30 -16 16 -32 -4 -32 -41
0 -20 -2 -21 -15 -11 -8 7 -15 20 -15 30 0 23 -26 46 -32 28z"/>
<path d="M7600 3410 c-4 -3 -8 -31 -9 -62 -1 -45 2 -58 14 -58 9 0 15 9 15 25
0 20 5 25 25 25 31 0 33 17 3 22 -32 5 -35 28 -4 28 14 0 26 6 26 13 0 12 -53
17 -70 7z"/>
<path d="M4174 3378 c3 -7 11 -32 18 -56 14 -48 29 -51 34 -7 2 16 8 31 14 33
5 2 10 13 10 25 -1 22 -1 22 -21 -2 -17 -21 -22 -22 -30 -10 -5 7 -9 17 -9 22
0 4 -5 7 -11 7 -6 0 -8 -6 -5 -12z"/>
<path d="M6953 3326 c2 -6 14 -10 25 -10 28 2 28 -3 -3 -48 -14 -20 -25 -41
-25 -45 0 -6 49 -9 83 -4 19 3 4 21 -18 21 -19 0 -23 4 -18 18 4 9 9 19 13 22
3 3 13 17 22 31 l17 27 -50 -1 c-31 0 -48 -4 -46 -11z"/>
<path d="M950 3301 c-75 -23 -77 -43 -5 -70 68 -25 65 -25 65 -2 0 14 -10 20
-42 26 l-43 8 44 13 c51 16 52 16 43 31 -5 7 -23 6 -62 -6z"/>
<path d="M2050 3258 c-14 -24 -16 -36 -9 -57 20 -51 70 -57 94 -12 36 70 -45
135 -85 69z m62 -28 c4 -28 -6 -50 -24 -50 -15 0 -26 35 -17 58 12 32 36 28
41 -8z"/>
<path d="M6576 3264 c-4 -10 3 -18 22 -24 68 -25 69 -26 25 -33 -40 -7 -62
-22 -49 -34 7 -7 114 26 121 37 7 11 -23 40 -41 40 -8 0 -28 7 -44 15 -25 13
-29 13 -34 -1z"/>
<path d="M277 3253 c-2 -5 -10 -26 -17 -48 -7 -22 -17 -46 -23 -52 -7 -10 -4
-13 11 -13 11 0 23 7 26 16 6 15 8 15 31 0 47 -31 49 -18 14 72 -13 30 -32 42
-42 25z m26 -66 c-3 -5 -10 -4 -15 1 -6 6 -7 16 -3 22 6 9 9 9 16 -1 4 -7 5
-17 2 -22z"/>
<path d="M4160 3253 c-11 -3 -14 -15 -12 -53 4 -47 22 -73 22 -30 0 11 5 20
10 20 6 0 10 -9 10 -20 0 -31 18 -24 34 13 13 28 14 29 13 7 -1 -14 2 -25 8
-25 5 0 11 19 12 43 4 52 -21 59 -41 11 l-13 -31 -14 34 c-9 20 -20 32 -29 31z"/>
<path d="M2426 3140 c-1 -3 -2 -99 -2 -215 l1 -210 195 0 195 0 0 215 0 215
-193 0 c-107 1 -195 -2 -196 -5z"/>
<path d="M5259 3145 c-4 -1 -6 -402 -3 -416 4 -13 30 -15 189 -16 124 0 185 4
188 11 2 6 3 103 2 216 l-1 205 -187 0 c-103 1 -188 1 -188 0z"/>
<path d="M8161 3138 l-30 -8 4 -183 c2 -100 4 -194 4 -208 l1 -26 178 0 c97 0
182 4 188 8 7 6 10 80 10 216 l-1 208 -162 0 c-88 0 -175 -3 -192 -7z"/>
<path d="M9872 3136 c-5 -6 -8 -103 -7 -216 l0 -205 195 0 195 0 0 215 0 215
-188 1 c-121 0 -190 -4 -195 -10z"/>
<path d="M4678 3096 c-2 -12 -1 -36 1 -53 3 -30 6 -33 37 -33 34 0 34 1 34 44
0 47 -7 56 -45 61 -18 1 -25 -3 -27 -19z m52 -17 c0 -5 -7 -9 -15 -9 -8 0 -15
7 -15 15 0 9 6 12 15 9 8 -4 15 -10 15 -15z m0 -39 c0 -5 -7 -10 -15 -10 -8 0
-15 5 -15 10 0 6 7 10 15 10 8 0 15 -4 15 -10z"/>
<path d="M4679 2970 c-1 -5 -1 -21 -1 -35 0 -63 1 -68 16 -56 8 6 11 23 9 39
-5 25 -3 24 23 -12 31 -45 40 -37 39 31 -1 44 -25 59 -25 16 l-1 -28 -20 28
c-21 27 -38 35 -40 17z"/>
<path d="M1494 2748 c-14 -22 17 -33 84 -32 39 1 75 5 81 8 6 4 11 4 11 -1 0
-4 16 -8 35 -8 19 0 35 4 35 8 0 5 6 5 12 1 18 -11 48 -12 48 -2 0 5 8 5 18 0
19 -9 131 -8 154 1 8 3 21 1 29 -3 8 -5 19 -4 26 2 7 6 13 7 13 2 0 -5 16 -9
35 -9 29 0 35 4 35 21 0 21 -2 21 -305 21 -168 0 -308 -4 -311 -9z"/>
<path d="M10057 2264 c-1 -1 -22 -3 -47 -5 -25 -1 -49 -5 -55 -8 -5 -3 -16 -6
-24 -8 -37 -5 -142 -67 -187 -111 -47 -45 -102 -124 -108 -154 -2 -7 -8 -33
-15 -58 -15 -49 -19 -202 -8 -265 12 -64 38 -137 58 -159 11 -11 19 -24 19
-30 0 -29 135 -126 213 -153 68 -24 77 -25 184 -28 105 -4 192 12 278 49 22
10 45 19 50 20 6 2 26 10 45 20 l36 18 -1 91 c-1 118 0 124 40 131 31 6 40 24
23 42 -7 6 -214 7 -287 1 -33 -3 -51 -19 -34 -30 5 -3 31 -8 58 -11 67 -8 78
-22 80 -103 3 -99 -12 -130 -79 -158 -133 -56 -296 -24 -396 77 -44 44 -83 95
-78 100 1 2 -5 17 -14 33 -27 52 -37 79 -44 125 -34 199 44 402 186 486 31 18
52 26 110 41 70 18 174 -5 271 -61 71 -41 82 -57 85 -132 4 -77 19 -106 41
-75 29 42 33 255 5 283 -14 14 -32 1 -32 -23 0 -10 -2 -19 -4 -19 -3 0 -39 13
-80 29 -42 16 -95 32 -118 36 -40 7 -166 13 -171 9z"/>
<path d="M1543 2247 c-2 -4 -9 -5 -14 -2 -5 4 -9 2 -9 -3 0 -12 25 -33 36 -31
5 1 24 1 43 0 l34 -1 -7 -257 c-7 -274 -15 -482 -20 -523 -2 -14 -4 -35 -5
-47 -1 -17 -10 -25 -41 -33 -43 -12 -57 -25 -39 -36 16 -9 223 -18 253 -10 18
4 23 11 19 26 -5 19 -36 27 -81 21 -8 -1 -20 4 -29 11 -13 11 -15 55 -12 340
2 180 6 328 9 328 3 0 5 25 5 55 -1 70 8 86 25 43 16 -42 36 -89 54 -130 8
-18 31 -73 51 -123 20 -49 42 -101 48 -115 5 -14 11 -27 12 -30 4 -13 19 -51
47 -120 17 -41 35 -86 41 -100 17 -44 26 -63 53 -125 15 -33 28 -63 28 -67 3
-19 19 -19 36 0 12 12 18 22 14 22 -4 0 0 8 9 18 19 21 85 160 127 267 17 44
35 89 39 100 12 26 55 138 57 145 0 3 4 14 9 25 4 11 21 54 37 95 16 41 33 79
36 85 4 5 7 12 7 15 4 26 18 51 24 41 4 -6 9 -184 10 -396 l2 -384 -43 -3
c-35 -2 -43 -7 -43 -23 0 -19 7 -20 120 -21 150 -1 205 4 205 21 0 13 -30 25
-67 25 -13 0 -23 3 -24 8 -1 4 -3 21 -5 37 -7 45 -10 795 -4 806 3 4 20 9 38
11 29 2 50 23 37 36 -8 8 -238 3 -245 -5 -11 -13 -235 -607 -232 -615 1 -5 -3
-8 -9 -8 -5 0 -7 -4 -4 -10 3 -5 1 -10 -5 -10 -6 0 -9 -4 -6 -8 6 -10 -36 -94
-48 -96 -10 -1 -17 11 -39 69 -41 106 -181 455 -197 490 -9 22 -30 74 -45 115
-15 41 -30 77 -32 80 -7 8 -255 6 -260 -3z"/>
<path d="M3526 2250 c-65 -11 -25 -40 55 -40 l29 0 0 -132 c1 -73 2 -262 3
-421 2 -158 0 -292 -3 -297 -3 -5 -31 -10 -62 -11 -59 -2 -79 -17 -53 -39 17
-14 342 -9 368 6 29 16 3 34 -54 37 l-54 4 -2 406 c-1 224 0 414 3 421 7 17
26 26 79 33 48 6 46 5 35 22 -6 11 -43 14 -162 15 -84 1 -166 -1 -182 -4z"/>
<path d="M4720 2250 c-22 -5 -41 -30 -23 -30 25 -2 89 -13 93 -17 6 -5 2 -573
-4 -673 -2 -36 -5 -91 -5 -122 l-1 -58 -50 0 c-43 0 -50 -3 -50 -19 0 -11 4
-23 10 -26 14 -9 261 -8 283 0 9 4 17 15 17 24 0 19 -8 21 -87 21 l-53 -1 -1
43 c0 65 0 205 1 503 l0 270 33 -36 c17 -20 43 -51 57 -69 25 -32 41 -52 83
-100 13 -14 47 -55 77 -92 29 -38 57 -68 62 -68 4 0 8 -5 8 -10 0 -8 134 -175
160 -200 3 -3 21 -25 40 -50 19 -25 40 -49 46 -55 6 -5 28 -32 50 -60 21 -27
54 -66 71 -85 18 -19 33 -38 33 -42 0 -5 7 -8 15 -8 8 0 16 3 16 8 11 61 18
203 25 507 7 320 8 338 17 352 4 6 3 14 -2 18 -17 10 0 35 24 35 52 0 78 33
33 42 -52 9 -248 2 -260 -10 -18 -18 -4 -25 59 -27 32 -2 62 -3 66 -4 10 -1 6
-681 -4 -681 -4 0 -20 16 -35 36 -16 20 -38 46 -49 58 -12 12 -39 44 -60 71
-22 27 -47 57 -55 66 -8 9 -22 25 -30 35 -20 25 -102 126 -115 140 -13 15 -25
30 -115 144 -41 52 -83 104 -92 115 -10 11 -24 29 -31 39 -13 18 -28 20 -124
21 -60 0 -120 -2 -133 -5z"/>
<path d="M6569 2250 c-42 -10 -29 -34 21 -40 25 -3 50 -8 55 -12 6 -3 12 -35
14 -70 7 -111 6 -722 -2 -750 -6 -24 -13 -28 -42 -28 -49 0 -91 -18 -77 -32
17 -17 342 -24 372 -8 39 21 2 41 -73 41 -36 -1 -38 1 -37 32 0 17 0 40 0 50
0 9 0 23 0 30 0 6 -1 23 -3 37 -2 14 -1 29 2 34 8 16 7 66 -2 66 -4 0 -4 8 0
18 5 9 7 42 6 72 -3 52 -3 62 -3 93 0 6 -1 23 -3 37 -2 14 -1 29 2 34 8 16 6
136 -2 136 -5 0 -5 5 -2 10 4 6 8 45 10 88 2 42 4 82 4 89 2 24 30 40 65 37
38 -2 55 11 38 28 -12 12 -300 18 -343 8z"/>
<path d="M7760 2250 c-12 -3 -21 -8 -21 -12 1 -5 1 -12 1 -16 0 -5 6 -9 13 -9
21 -1 69 -12 75 -17 13 -13 21 -156 10 -178 -5 -10 -5 -18 -1 -18 5 0 8 -12 7
-27 -1 -16 -3 -28 -3 -28 -1 0 -3 -127 -5 -283 -3 -200 -8 -287 -16 -298 -7
-7 -28 -14 -47 -14 -36 0 -57 -25 -32 -41 23 -14 262 -11 283 4 29 22 -3 39
-74 38 l-60 0 -1 107 c-1 214 2 637 4 652 8 45 21 37 110 -68 51 -60 103 -123
117 -141 14 -18 30 -38 35 -44 14 -16 239 -291 279 -341 17 -22 38 -46 46 -55
8 -9 35 -41 60 -71 52 -63 102 -112 108 -105 8 8 25 479 31 848 1 46 5 59 19
63 53 17 84 36 74 46 -10 10 -219 18 -274 10 -24 -4 -41 -31 -20 -33 62 -4
128 -12 132 -16 9 -8 7 -673 -2 -673 -10 0 -44 38 -109 120 -23 30 -51 63 -60
75 -9 11 -43 52 -74 90 -70 87 -65 82 -155 191 -41 49 -88 107 -105 129 -16
21 -46 55 -65 76 l-35 38 -112 3 c-61 2 -121 1 -133 -2z"/>
</g>
</svg>
