<svg width="32" height="32" fill="none" xmlns="http://www.w3.org/2000/svg"><path d="M14.858 22.941c-.34-.563.498-1.078.85-.525l.68 1.1 1.804-1.47-1.115-6.199-3.07 3.335-2.609.295a.504.504 0 00-.36.22l-1.48 2.245 1.225 2.549c.045.095.06.205.04.31l-.385 2.11c-.13.643-1.094.474-.985-.18l.36-1.95-1.015-2.095L5.06 24.13c-.11.045-.2.12-.255.225l-2.734 4.9c-.193.314.065.755.435.744h10.878l2.32-5.69-.845-1.369z" fill="#11F"/><path d="M20.867 18.002a.425.425 0 00-.155-.205l-2.64-2.07 1.155 6.434a.496.496 0 01-.175.475l-2.375 1.935-2.214 5.43h7.404a.503.503 0 00.49-.616l-.745-3.12 1.275-2.954a.503.503 0 00.005-.39l-2.025-4.92zm-10.514-.9a.503.503 0 00.585-.225 37.875 37.875 0 014.795-6.554l.61.605a.939.939 0 001.334 0l.34-.34c.212-.215.707-.705.915-.915a.946.946 0 00-.005-1.33l-.605-.61a37.885 37.885 0 016.554-4.794c.45-.245.225-1.003-.295-.935a15.994 15.994 0 00-14.578 14.578c-.02.235.125.45.35.52zm19.087 1.8l-3.888-3.677-5.585-5.282c-.085.16-.2.31-.33.44-.307.278-1.333 1.408-1.69 1.585l2.72 2.88L26.9 21.44c.335.355.79.55 1.275.56 1.6.065 2.451-2.024 1.264-3.1z" fill="#11F"/></svg>