<svg width="28" height="28" fill="none" xmlns="http://www.w3.org/2000/svg"><path d="M13 20.073c-.297-.493.437-.943.744-.459l.595.962 1.58-1.286-.976-5.424-2.686 2.918-2.284.258a.44.44 0 00-.315.192L8.363 19.2l1.072 2.23c.04.083.053.18.035.272l-.337 1.846c-.113.562-.957.415-.861-.158l.315-1.706-.889-1.833-3.271 1.264a.428.428 0 00-.223.197L1.81 25.598c-.169.275.057.662.38.652h9.519l2.03-4.978-.74-1.199z" fill="#fff"/><path d="M18.258 15.751a.371.371 0 00-.136-.179l-2.31-1.81 1.011 5.629a.434.434 0 01-.153.416L14.592 21.5l-1.937 4.75h6.478a.44.44 0 00.429-.538l-.652-2.73 1.116-2.585a.44.44 0 00.004-.341l-1.772-4.305zm-9.2-.787a.44.44 0 00.513-.197 33.149 33.149 0 014.195-5.734l.534.529a.821.821 0 001.167 0l.298-.297c.185-.189.619-.617.8-.801a.828.828 0 00-.004-1.164l-.53-.534a33.148 33.148 0 015.736-4.194c.393-.215.196-.878-.259-.818A13.995 13.995 0 008.753 14.509a.436.436 0 00.306.455zM25.76 16.54l-3.402-3.218-4.887-4.62c-.074.14-.175.27-.289.384-.269.243-1.166 1.232-1.478 1.387l2.38 2.52 5.454 5.769c.293.31.691.481 1.116.49 1.4.057 2.145-1.771 1.106-2.712z" fill="#fff"/></svg>