<svg width="32" height="32" fill="none" xmlns="http://www.w3.org/2000/svg"><g clip-path="url(#clip0_70_984)"><path d="M14.036 18.445h-1.355v-1.356a.938.938 0 00-1.875 0v1.356H9.45a.938.938 0 00-.938.937v4.585c0 .518.42.938.938.938h1.355v1.431a.938.938 0 001.875 0v-1.431h1.355c.518 0 .938-.42.938-.938v-4.585a.938.938 0 00-.938-.938zm8.513-4.586h-1.355v-1.355a.938.938 0 00-1.875 0v1.355h-1.355a.938.938 0 00-.938.938v4.585c0 .517.42.937.938.937h1.355v6.018a.938.938 0 001.875 0v-6.018h1.355c.518 0 .938-.42.938-.937v-4.586a.938.938 0 00-.938-.937zm8.513-6.84h-1.355V5.664a.938.938 0 00-1.875 0v1.355h-1.355a.938.938 0 00-.938.937v6.84c0 .518.42.938.938.938h1.355v3.724a.938.938 0 001.875 0v-3.724h1.355c.518 0 .938-.42.938-.938v-6.84a.938.938 0 00-.938-.937zm-25.54 4.47H4.169V5.665a.938.938 0 00-1.875 0v5.826H.938a.938.938 0 00-.938.938v7.03c0 .518.42.938.938.938h1.355v1.355a.938.938 0 001.875 0v-1.355h1.355c.518 0 .938-.42.938-.938v-7.03a.938.938 0 00-.938-.938z" fill="#11F"/></g><defs><clipPath id="clip0_70_984"><path fill="#fff" d="M0 0h32v32H0z"/></clipPath></defs></svg>