<svg width="28" height="28" fill="none" xmlns="http://www.w3.org/2000/svg"><g clip-path="url(#clip0_70_791)"><path d="M12.281 16.139h-1.185v-1.186a.82.82 0 10-1.64 0v1.186H8.268a.82.82 0 00-.82.82v4.012c0 .453.367.82.82.82h1.186v1.253a.82.82 0 001.64 0v-1.252h1.186a.82.82 0 00.82-.82v-4.013a.82.82 0 00-.82-.82zm7.45-4.013h-1.186v-1.185a.82.82 0 10-1.64 0v1.185h-1.187a.82.82 0 00-.82.82v4.013c0 .453.367.82.82.82h1.186v5.265a.82.82 0 101.64 0V17.78h1.187a.82.82 0 00.82-.82v-4.012a.82.82 0 00-.82-.82zm7.449-5.985h-1.186V4.956a.82.82 0 00-1.64 0V6.14h-1.187a.82.82 0 00-.82.82v5.986c0 .453.367.82.82.82h1.186v3.259a.82.82 0 101.64 0v-3.259h1.187a.82.82 0 00.82-.82V6.962a.82.82 0 00-.82-.82zM4.833 10.053H3.647V4.956a.82.82 0 00-1.64 0v5.097H.82a.82.82 0 00-.82.82v6.153c0 .453.367.82.82.82h1.186v1.186a.82.82 0 001.64 0v-1.186h1.187a.82.82 0 00.82-.82v-6.152a.82.82 0 00-.82-.82z" fill="#fff"/></g><defs><clipPath id="clip0_70_791"><path fill="#fff" d="M0 0h28v28H0z"/></clipPath></defs></svg>