<svg width="138" height="33" fill="none" xmlns="http://www.w3.org/2000/svg"><g clip-path="url(#clip0_630_119)" fill-rule="evenodd" clip-rule="evenodd"><path d="M12.042 7.768h9.43c5.063 0 6.968 2.53 6.674 6.246-.487 6.137-4.245 9.532-9.23 9.532h-2.517c-.684 0-1.144.447-1.33 1.657l-1.068 7.04c-.07.457-.314.72-.68.757H7.398c-.557 0-.754-.42-.608-1.331L10.4 9.1c.141-.903.643-1.333 1.64-1.333z" fill="#009EE3"/><path d="M52.982 7.35c3.181 0 6.117 1.703 5.715 5.949-.487 5.045-3.225 7.837-7.546 7.849h-3.775c-.543 0-.806.437-.947 1.333l-.73 4.582c-.11.692-.47 1.033-1 1.033h-3.513c-.56 0-.755-.353-.63-1.143l2.899-18.364c.143-.903.486-1.24 1.112-1.24h8.415zm-5.72 9.831h2.86c1.789-.067 2.977-1.29 3.096-3.496.073-1.362-.86-2.337-2.342-2.33l-2.692.012-.922 5.814zm20.984 9.51c.322-.289.648-.438.602-.082l-.115.85c-.058.445.12.68.538.68h3.12c.527 0 .782-.209.911-1.011l1.923-11.912c.098-.598-.05-.892-.51-.892h-3.433c-.31 0-.46.171-.54.637l-.127.733c-.066.382-.243.45-.409.065-.582-1.36-2.067-1.97-4.138-1.922-4.812.098-8.057 3.704-8.405 8.327-.268 3.575 2.327 6.384 5.75 6.384 2.482 0 3.592-.72 4.843-1.85l-.01-.007zm-2.614-1.833c-2.071 0-3.515-1.632-3.215-3.63.3-2 2.237-3.631 4.308-3.631 2.072 0 3.515 1.631 3.216 3.63-.3 2-2.235 3.63-4.309 3.63zm15.7-10.572h-3.164c-.652 0-.918.48-.71 1.072l3.928 11.354-3.853 5.404c-.324.452-.073.862.382.862h3.556a1.1 1.1 0 001.057-.511L94.61 15.36c.372-.526.197-1.079-.414-1.079H90.83c-.577 0-.809.226-1.14.7l-5.038 7.207-2.252-7.224c-.131-.438-.46-.678-1.066-.678h-.002z" fill="#113984"/><path d="M107.181 7.35c3.182 0 6.117 1.703 5.715 5.948-.486 5.046-3.225 7.838-7.545 7.85h-3.773c-.543 0-.806.437-.947 1.333l-.73 4.582c-.11.692-.47 1.033-1 1.033h-3.513c-.56 0-.755-.353-.63-1.143L97.66 8.584c.144-.903.487-1.24 1.112-1.24h8.408v.006zm-5.72 9.831h2.86c1.789-.067 2.977-1.29 3.096-3.496.073-1.362-.859-2.338-2.341-2.33l-2.693.012-.922 5.814zm20.985 9.51c.321-.289.647-.438.601-.082l-.114.85c-.059.445.119.68.537.68h3.121c.526 0 .781-.209.91-1.011l1.923-11.912c.098-.598-.051-.892-.511-.892h-3.427c-.309 0-.46.17-.54.637l-.127.733c-.066.382-.243.45-.409.065-.582-1.36-2.067-1.97-4.138-1.922-4.812.098-8.057 3.704-8.405 8.327-.268 3.575 2.327 6.384 5.749 6.384 2.483 0 3.593-.72 4.844-1.85l-.014-.007zm-2.612-1.834c-2.072 0-3.515-1.63-3.216-3.63.3-1.999 2.237-3.63 4.309-3.63 2.071 0 3.515 1.631 3.215 3.63-.299 2-2.237 3.63-4.308 3.63zm14.393 3.302h-3.603a.431.431 0 01-.334-.138.417.417 0 01-.106-.343l3.164-19.788a.615.615 0 01.599-.48h3.603a.433.433 0 01.335.138.415.415 0 01.105.342l-3.164 19.788a.614.614 0 01-.599.485v-.004z" fill="#009EE3"/><path d="M6.144 0h9.44c2.658 0 5.812.084 7.92 1.922 1.41 1.228 2.15 3.181 1.98 5.286-.58 7.114-4.89 11.1-10.675 11.1h-4.654c-.793 0-1.316.519-1.54 1.922l-1.3 8.169c-.085.529-.317.84-.73.88H.76c-.646 0-.874-.481-.706-1.543L4.24 1.552C4.408.5 4.995 0 6.144 0z" fill="#113984"/><path d="M8.751 19.401l1.648-10.3c.144-.903.645-1.336 1.643-1.336h9.43c1.56 0 2.823.24 3.812.685-.947 6.333-5.097 9.85-10.53 9.85h-4.647c-.623.003-1.081.31-1.356 1.101z" fill="#172C70"/></g><defs><clipPath id="clip0_630_119"><path fill="#fff" d="M0 0h138v33H0z"/></clipPath></defs></svg>