<svg width="138" height="33" viewBox="0 0 138 33" fill="none" xmlns="http://www.w3.org/2000/svg">
<g clip-path="url(#clip0_630_119)">
<path fill-rule="evenodd" clip-rule="evenodd" d="M12.0416 7.76758H21.4715C26.5346 7.76758 28.4405 10.2975 28.146 14.0144C27.6591 20.1507 23.9008 23.5456 18.9156 23.5456H16.3987C15.7147 23.5456 15.2547 23.9925 15.0697 25.2034L14.0011 32.2431C13.9305 32.6996 13.6871 32.9639 13.3219 32.9999H7.39718C6.83975 32.9999 6.64259 32.5794 6.78864 31.6689L10.4009 9.10104C10.5421 8.19765 11.0436 7.76758 12.0416 7.76758Z" fill="#009EE3"/>
<path fill-rule="evenodd" clip-rule="evenodd" d="M52.9819 7.34961C56.1633 7.34961 59.0989 9.05307 58.6973 13.2985C58.2104 18.344 55.472 21.1358 51.1514 21.1479H47.376C46.8331 21.1479 46.5703 21.5851 46.4291 22.4813L45.6988 27.0631C45.5893 27.7551 45.229 28.0962 44.6984 28.0962H41.1859C40.626 28.0962 40.4313 27.7431 40.5554 26.9526L43.4545 8.58936C43.5981 7.68598 43.9414 7.34961 44.5669 7.34961H52.9745H52.9819ZM47.2616 17.1811H50.1217C51.9108 17.1139 53.0987 15.8909 53.218 13.6853C53.291 12.323 52.3587 11.3476 50.8763 11.3548L48.1841 11.3668L47.2616 17.1811ZM68.2465 26.6907C68.5678 26.4024 68.894 26.2534 68.8477 26.609L68.7333 27.4595C68.6749 27.904 68.8526 28.1395 69.2713 28.1395H72.3919C72.9176 28.1395 73.1732 27.9305 73.3022 27.128L75.2252 15.2158C75.3226 14.6175 75.1741 14.3244 74.7141 14.3244H71.2819C70.9727 14.3244 70.8218 14.495 70.7415 14.9611L70.6149 15.6939C70.5492 16.0759 70.3715 16.1432 70.206 15.7588C69.6242 14.3989 68.1394 13.7886 66.0679 13.8367C61.2556 13.9352 58.0108 17.5415 57.6627 22.1642C57.395 25.7393 59.9898 28.5479 63.4122 28.5479C65.8951 28.5479 67.0051 27.8271 68.2562 26.6979L68.2465 26.6907ZM65.6322 24.8575C63.5607 24.8575 62.1173 23.2261 62.4167 21.2272C62.7161 19.2282 64.6537 17.5968 66.7251 17.5968C68.7966 17.5968 70.2401 19.2282 69.9407 21.2272C69.6413 23.2261 67.7061 24.8575 65.6322 24.8575ZM81.3325 14.286H78.1681C77.5158 14.286 77.2505 14.7665 77.4574 15.3575L81.3861 26.7123L77.5328 32.1158C77.2091 32.5675 77.4598 32.9784 77.915 32.9784H81.4713C81.6786 33.002 81.8883 32.9664 82.0756 32.8756C82.263 32.7849 82.4199 32.6429 82.5277 32.4666L94.6109 15.3599C94.9833 14.8338 94.8081 14.2812 94.1971 14.2812H90.8306C90.2538 14.2812 90.0225 14.507 89.6915 14.9803L84.6527 22.1882L82.4011 14.9635C82.2697 14.5262 81.9411 14.286 81.335 14.286H81.3325Z" fill="#113984"/>
<path fill-rule="evenodd" clip-rule="evenodd" d="M107.181 7.34954C110.363 7.34954 113.298 9.053 112.896 13.2984C112.41 18.3439 109.671 21.1358 105.351 21.1478H101.578C101.035 21.1478 100.772 21.5851 100.631 22.4812L99.9005 27.063C99.791 27.755 99.4307 28.0962 98.9001 28.0962H95.3875C94.8277 28.0962 94.633 27.743 94.7571 26.9525L97.6611 8.58448C97.8047 7.68109 98.1479 7.34473 98.7735 7.34473H107.181V7.34954ZM101.461 17.1811H104.321C106.11 17.1138 107.298 15.8909 107.417 13.6852C107.49 12.323 106.558 11.3475 105.076 11.3547L102.383 11.3667L101.461 17.1811ZM122.446 26.6906C122.767 26.4023 123.093 26.2534 123.047 26.6089L122.933 27.4595C122.874 27.904 123.052 28.1394 123.47 28.1394H126.591C127.117 28.1394 127.372 27.9304 127.501 27.1279L129.424 15.2157C129.522 14.6175 129.373 14.3243 128.913 14.3243H125.486C125.177 14.3243 125.026 14.4949 124.946 14.961L124.819 15.6938C124.753 16.0759 124.576 16.1431 124.41 15.7587C123.828 14.3988 122.343 13.7886 120.272 13.8366C115.46 13.9351 112.215 17.5415 111.867 22.1641C111.599 25.7392 114.194 28.5479 117.616 28.5479C120.099 28.5479 121.209 27.8271 122.46 26.6978L122.446 26.6906ZM119.834 24.8574C117.762 24.8574 116.319 23.2261 116.618 21.2271C116.918 19.2281 118.855 17.5967 120.927 17.5967C122.998 17.5967 124.442 19.2281 124.142 21.2271C123.843 23.2261 121.905 24.8574 119.834 24.8574ZM134.227 28.1586H130.624C130.562 28.1614 130.499 28.1505 130.441 28.1266C130.384 28.1028 130.332 28.0666 130.29 28.0207C130.248 27.9748 130.216 27.9203 130.198 27.8611C130.18 27.8019 130.175 27.7394 130.184 27.6781L133.348 7.89013C133.379 7.75508 133.454 7.63409 133.563 7.54685C133.672 7.4596 133.807 7.41123 133.947 7.4096H137.55C137.612 7.40684 137.675 7.41776 137.733 7.4416C137.791 7.46544 137.842 7.5016 137.885 7.54751C137.927 7.59341 137.958 7.64792 137.976 7.70715C137.994 7.76638 137.999 7.82886 137.99 7.89013L134.826 27.6781C134.797 27.814 134.721 27.9361 134.613 28.0243C134.504 28.1125 134.368 28.1616 134.227 28.1634V28.1586Z" fill="#009EE3"/>
<path fill-rule="evenodd" clip-rule="evenodd" d="M6.14391 0H15.5836C18.2417 0 21.3964 0.0840917 23.5044 1.9221C24.9137 3.14984 25.6537 5.10317 25.4833 7.20786C24.904 14.322 20.5931 18.308 14.8095 18.308H10.1554C9.36187 18.308 8.83852 18.8269 8.61458 20.2301L7.31474 28.399C7.22954 28.9276 6.9983 29.2399 6.58449 29.2783H0.759538C0.114485 29.2783 -0.114329 28.7978 0.0536287 27.7359L4.24039 1.55209C4.40835 0.499743 4.99498 0 6.14391 0Z" fill="#113984"/>
<path fill-rule="evenodd" clip-rule="evenodd" d="M8.75098 19.401L10.3989 9.101C10.5425 8.19762 11.044 7.76514 12.042 7.76514H21.4719C23.0322 7.76514 24.2955 8.0054 25.2838 8.44989C24.3369 14.7832 20.1867 18.3006 14.7536 18.3006H10.1068C9.48366 18.303 9.02604 18.6106 8.75098 19.401Z" fill="#172C70"/>
</g>
<defs>
<clipPath id="clip0_630_119">
<rect width="138" height="33" fill="white"/>
</clipPath>
</defs>
</svg>
