<svg width="2372" height="1189" fill="none" xmlns="http://www.w3.org/2000/svg"><path d="M1227.71 194.168c-464.612 261.049-768.187 228.724-918.723 153.36C152.282 569.861-135.327 787.959 73.124 741.5c260.564-58.074 426.363-76.83 638.557 25.046C935.494 874 1322.99 780.197 1581.99 741.5c307.5-45.943 555.64 253.907 763.69 446.55l26.31-840.522c-347.08-371.56-680.07-414.18-1144.28-153.36z" fill="url(#paint0_linear_633_109)" fill-opacity=".2"/><path d="M1227.71 166.168c-464.612 261.049-768.187 228.724-918.723 153.36C152.282 541.861-135.327 759.959 73.124 713.5c260.564-58.074 426.363-76.83 638.557 25.046C935.494 846 1322.99 752.197 1581.99 713.5c307.5-45.943 555.64 253.907 763.69 446.55l26.31-840.522c-347.08-371.56-680.07-414.18-1144.28-153.36z" fill="url(#paint1_linear_633_109)"/><defs><linearGradient id="paint0_linear_633_109" x1="1196.99" y1="28" x2="1196.99" y2="1403" gradientUnits="userSpaceOnUse"><stop stop-color="#6989FE"/><stop offset="1" stop-color="#3C64F4"/></linearGradient><linearGradient id="paint1_linear_633_109" x1="1196.99" y1="0" x2="1196.99" y2="1375" gradientUnits="userSpaceOnUse"><stop stop-color="#6989FE"/><stop offset="1" stop-color="#3C64F4"/></linearGradient></defs></svg>