<svg version="1.0" xmlns="http://www.w3.org/2000/svg" width="1621.333" height="1621.333" viewBox="0 0 1216 1216"><path d="M728.7 129.1c-2.7.4-7 1-9.5 1.4-2.5.3-4.8.8-5.1 1-.6.3-5.6 1.3-10.6 2-1.1.2-2 .4-2 .5 0 .1-.9.3-2 .5s-3.8.9-6 1.6c-2.2.6-6.2 1.8-9 2.6-7.9 2.4-30.9 11.6-31.7 12.8-.4.5-.8.7-.8.3 0-1.9-38.8 20.8-39.8 23.3-.2.5-.8.9-1.3.9-1 0-10.8 7-13.9 10-2.4 2.1-5.8 5-11.9 9.9-5 3.9-5.7 4.2-10.5 3.8-3.5-.2-6.6.3-9.8 1.6l-4.8 2-3.5-2.7c-9.3-7.1-18.3-6.7-24.1 1-3.1 4-5.5 9.9-4.5 10.9.3.4.6 1 .7 1.3.2 2.5 1.7 7.2 2.3 7.2.3 0 1.5 1.6 2.5 3.5 1.8 3.3 1.8 3.7.2 8.9-2 6.4-1.7 9.9 1.7 17.9.2.4-6.9 9.1-9.8 12.1-5 5.2-22.5 31.3-22.5 33.5 0 .5-.4 1.1-.8 1.3-.7.3-13.2 24.9-13.2 26 0 .3-.8 2.3-1.7 4.4-.9 2.2-1.8 4.3-1.9 4.9-.1.5-1.3 4.4-2.7 8.5-7.4 21.7-9.1 33-9.2 60.5 0 17.8.9 22.9 4.5 24 4.6 1.5 5.7-.5 10.5-19.3 3.6-13.7 11.6-38.3 14.1-43.1.8-1.4 1.4-2.9 1.4-3.3 0-.8 4.6-11.2 6-13.8.5-.8 2.3-4.4 4.1-8 3.2-6.4 11.7-21 12.8-22 .4-.3 1.2-1.7 2-3.2.8-1.5 2.2-3.7 3.3-4.7 1-1.1 1.8-2.3 1.8-2.6 0-1.6 17.8-24.4 22.3-28.6l2.9-2.6 5.1 2.5c5.7 2.7 5.7 2.7 10.7 1.9 1.9-.3 4.1-.3 4.7.1.6.4 44.8 44.2 98 97.2C781.5 480.4 805.1 503.5 809 505.5c8.9 4.6 22.7-.1 27.9-9.5 3.3-6 3.5-16.2.4-20.6-2.9-4.1-35.3-37-121-123-88.9-89.3-105.7-106.6-104.7-107.6.2-.3.4-2.7.5-5.4.3-8 .3-8 14.9-17.7 11.8-7.9 22.7-13.4 37-18.7 10.7-3.9 28.8-9 34-9.5 1.4-.2 2.5-.4 2.5-.5 0-.2 2.7-.7 8-1.4 12.5-1.8 20.3-2.5 32.5-2.7 10.2-.2 12.1-.8 12.7-4.8.3-2.4 1.3-14.4 1.8-24.1 1.8-32.7 1.9-29.5-.8-30.7-2.7-1.2-18.5-1.3-26-.2zm16.7 13.9c-.8 23-1.7 32.7-3.1 34.1-.5.5-6.7 1.1-13.8 1.5-13.5.6-20 1.1-20 1.4 0 .1-1.6.3-3.5.6-11.1 1.4-39.7 9.2-48.5 13.3-1.1.5-5.1 2.4-9 4.2-8.8 4-22.9 11.9-23.3 13-.2.5-.7.7-1.2.4-.5-.3-1.4.1-2.2.8-.7.7-4.8 3.6-9.1 6.6l-7.9 5.3-7.9-7.9-7.9-7.8 2.3-2.5c1.3-1.4 4.4-4.1 6.8-6.1 11.6-9.5 15.7-12.7 17.7-13.8 1.1-.6 2.6-1.7 3.4-2.4 3.5-3.4 19.5-13 31.9-18.9 9.4-4.6 28.7-12.6 32.2-13.4.9-.2 2.6-.6 3.6-.8 1.1-.3 2.9-1 4-1.6 1.2-.6 2.1-.9 2.1-.6 0 .3 1.6-.2 3.5-1s3.5-1.2 3.5-.9c0 .3.8.1 1.8-.4.9-.5 3.1-1.1 4.7-1.4 1.7-.3 3.9-.8 5-1 8.3-1.8 11.2-2.3 19.5-3.2 3.6-.4 6.6-.9 6.8-1 .2-.2 2.2-.2 4.5-.1 4.1.1 4.2.2 4.1 3.6zm-196.2 65.7c1 .9 1.8 2.4 1.8 3.3 0 1.6-2.9 4.8-5.8 6.5-1.8 1-6.2-3.3-6.2-6.1 0-4.9 6.4-7.2 10.2-3.7zm37.8 14.2c7.1 7.1 13.1 13.9 13.5 15.1.4 1.2.1 3-.9 4.4-2.8 4.3-17.7 19.5-22.7 23.2l-4.9 3.6-3.8-2.8c-6.2-4.6-25.2-24.6-25.2-26.5 0-1 5.7-7.6 12.8-14.7 11.9-12 15.4-15.1 17.6-15.2.5 0 6.6 5.8 13.6 12.9zm25.8 42.3c4.8 4.6 46.5 46.1 92.7 92.3C786.9 439 824.2 477 827.6 481.9c3.8 5.4-3.5 15.4-10.7 14.3-1.7-.2-3.3-1.1-3.6-1.8-.3-.8-.9-1.4-1.3-1.4-1.2 0-19.1-17.4-67.4-65.2-77.3-76.6-156.1-155.8-155.9-156.7.4-1.7 13.6-14.1 15-14.1.2 0 4.3 3.7 9.1 8.2zm-65-2.2c1.7 1.6 3.2 3.2 3.2 3.5 0 .6-.2.9-5.1 6.5-1.7 1.9-4.5 5.3-6.2 7.4-1.8 2.2-4 4.7-4.9 5.7-2.8 3-18.8 26.6-18.8 27.8 0 .6-.4 1.1-1 1.1-.5 0-1 .6-1 1.4 0 .8-.3 1.6-.7 1.8-1.8.7-23.5 44.9-23.8 48.3 0 .5-.4 1.6-.8 2.2-.5.7-1 2.3-1.2 3.4-.3 1.2-.7 2.4-1 2.7-1 1-.5-4.3.9-9.6 1.7-6.1 1.5-5.4 2.3-9.2.3-1.7 1-3.3 1.4-3.6.5-.3.7-.9.4-1.3-.5-.8 4.3-15.1 8.1-24.1 5.6-13.3 21.1-40.9 23.5-41.8.5-.2.9-.8.9-1.4 0-1 12.5-16.9 16.9-21.6 2.7-2.8 2.9-2.8 6.9.8zm-163.9 69.4c-9.5 4.9-12.6 15.6-7.1 24.2 3.4 5.6 8.8 8.3 15.2 7.7 5.3-.5 7.9-2 11.6-6.8 3.9-5.1 4.4-12 1.3-17.5-4.3-7.6-14.2-11.2-21-7.6zm9.8 10.5c1 .1 2.3 2.6 2.9 5.8.3 1.6-2.8 4.3-5.5 4.8-3 .6-6.1-2.8-6.1-6.5 0-3.2 2.3-5.1 5.5-4.5 1.1.2 2.5.4 3.2.4z"/><path d="M612.5 349c-5.2.8-7.9 2.3-10.9 6.3-4.7 6.2-4.9 15.2-.4 20.1 1 1.1 1.8 2.3 1.8 2.6 0 .8 4.3 2.9 8.4 4.1 6.9 2 17.5-4.2 19.4-11.4 3.2-12-6.5-23.4-18.3-21.7zm5.9 12.5c4.1 4.1 1.8 9.7-3.9 9.7-3.2 0-4.2-.9-4.9-4.3-.9-5.4 5.1-9.1 8.8-5.4zm-198.1-.4c-2.3.8-3.7 3.8-2.8 6 .3.8 2.9 2.9 5.8 4.6 6.5 3.9 16 13.2 21.2 20.9 5.1 7.4 7 9.4 9.4 9.4 5.5 0 5.5-9.9.1-15-.3-.3-1.9-2.3-3.5-4.5-10-13.4-24.3-23.6-30.2-21.4zm157.7 2.3c-.3.2-2.1.7-4 1-14.3 2.3-33.7 12-47 23.6-12.2 10.6-17 16.1-17 19.6 0 3.7 5.7 5.8 8.4 3.1 1.5-1.3 13.6-12.3 17.6-15.7 11.8-10.4 26.9-17.2 46.5-21 6.9-1.4 8.5-2.4 8.5-5.4-.1-3.7-2.2-5.2-7.5-5.5-2.8-.1-5.3 0-5.5.3zm-32.5 59.8c-2.7.4-5.9.9-7 1.1-2.6.5-4.6 4.4-3.6 7.1.7 1.8 1.7 2.1 8.7 2.3 48.6 1.7 49.2 1.7 66.8 7.4 12.2 3.8 17 4.7 18 3.1.3-.5.7-2 1-3.5.4-2.1-.2-3.1-2.3-4.7-5.2-3.6-26.4-9.8-39.7-11.5-2-.2-5.5-.7-7.8-1.1-6.2-.9-28.4-1.1-34.1-.2zm-93.3 12c-2.8 2.9-5.9 6.2-6.9 7.4-8.4 9.8-11.3 13.2-14.7 17.3-5.3 6.2-26.5 27.2-35.1 34.6-3.8 3.3-7.8 6.9-9 8-1.9 1.9-16.6 14.6-17.4 15.2-.2.1-.4 5.8-.6 12.6-.1 6.8-.5 12.9-.9 13.5-.4.7-.4 1.2.1 1.2.4 0 .7 3 .5 6.7-.3 8.6-.3 6.8.1 21.5.4 13.5 1.1 15.8 5.2 15.8 4.8 0 4.9-1.2 5.2-33.8l.2-30.6 6.3-6.1c7.8-7.3 15.2-14 24.2-22 9.6-8.4 23.6-22.8 34.1-35.1 7.4-8.6 9.1-10.5 13.1-14.5 4.1-4.1 4.4-4.1 14.7.4 3.1 1.4 5.8 2.6 6 2.5.1 0 2.2.8 4.7 1.9 2.5 1.2 8.3 3.7 13 5.8 10 4.3 10.3 4.5 12.7 9.3 5.2 10.3 9.9 18.7 10.6 19 .4.2.7.9.7 1.6 0 1.1 2.6 6.3 8.6 17.1 2.4 4.4 4.2 5.2 18.1 8.1 1.5.3 3 .7 3.5 1 .5.3 2.1.8 3.6 1 1.5.3 11.7 2.7 22.7 5.4 11 2.8 21 5.2 22.3 5.5 1.7.4 3.2 2.6 5.8 8.3 10 21.6 20.6 42.2 22.2 43.1 2.6 1.4 5.9.3 6.5-2 1-3.6-2-11-15.8-39.4-4-8.3-8.2-16-9.4-17.2-1.2-1.2-4-2.7-6.4-3.3-2.3-.6-6.4-1.7-9.2-2.5-2.7-.8-6.1-1.6-7.5-1.9-4.4-.9-6.2-1.3-24.5-6.1-9.9-2.6-19-4.9-20.2-5.2-1.4-.3-3.2-2.5-5.1-6.2-1.6-3.1-5.2-9.9-7.9-15.1-2.8-5.2-6.7-12.8-8.8-16.8-2.8-5.5-4.5-7.6-6.9-8.6-1.7-.7-5.3-2.3-8.1-3.6-2.7-1.2-6.8-3-9-4s-5.6-2.4-7.6-3.3c-10.2-4.6-27.2-11.7-27.9-11.7-.4 0-3 2.4-5.8 5.2zm196.8 3.9c-3.8 1.6-6.1 4-8.5 9.2-5.2 11.1 2.3 22.4 15.5 23.2 4.8.3 11.2-4.2 14.1-9.7 2.4-4.7 2.6-7.3.9-12.2-2.9-8.9-13.4-13.9-22-10.5zm10.3 11.7c3.3 2.9 1.5 7.7-3.6 9.5-2.3.9-5.7-2.6-5.7-5.8 0-3 3.6-6.6 5.9-5.8.9.3 2.4 1.3 3.4 2.1zM97.6 676.4c-1.4 4.5-4.8 15.7-7.6 25.1-5.3 17.5-7.8 25.9-8.5 28.5-.2.8-.4 1.5-.5 1.5-.1 0-.3.7-.5 1.5-.1.8-1 4-2 7-4.1 13.3-5.6 18.7-6.1 21-.3 1.3-1 3-1.5 3.6-.5.7-.9 1.6-.8 2 .1.5-.1 1.6-.4 2.4-.3.8-1.8 5.5-3.2 10.5-1.4 4.9-4 13.5-5.6 19C59.2 804 57 811.4 56 815c-4.1 14.3-2.4 12.7-14 13.2l-5.5.3.1 38.2c.1 27.2-.2 38.3-1 38.4-.6.1-5 .1-9.8.1l-8.8.1v39.3h21.5c11.8.1 21.5-.2 21.6-.5.1-.3.2-9.2.2-19.6l.2-19h11.7c6.4-.1 12-.3 12.3-.6.3-.3.6-5.7.8-12l.2-11.4h31.2c17.2.1 31.5.4 31.9.8.4.4.7 12.9.7 27.7v27l25.7-.1 25.6-.1v-8.9c0-5.3-.4-9-1-9.2-.6-.3-3.4-.4-6.2-.4-2.9 0-5.6-.3-6.2-.7-.6-.3-1.3-.2-1.6.3-.3.5-1.5.7-2.7.4-1.6-.5-1.9-1.2-1.7-4.1l.3-3.6 9.3.1c5 0 9.3-.2 9.3-.6.1-.3.3-20.6.3-45.1l.2-44.6-3.3-.1c-1.8 0-3.9-.3-4.6-.6-1.1-.4-3.7-7-4.2-10.7-.1-.3-.9-3.2-1.9-6.5-1-3.3-1.9-6.5-2-7-.3-1.4-5.5-18.2-7.3-23.5-.8-2.5-1.7-5.4-1.9-6.6-.2-1.2-1-4-1.8-6.3-.9-2.2-1.3-4.1-.9-4.1.3 0 .1-.6-.4-1.3-.6-.6-1.6-3.5-2.2-6.2-.7-2.8-1.7-5.9-2.1-7-.5-1.1-2.3-7-4-13-1.7-6.1-3.7-12.6-4.4-14.5-.8-1.9-1.4-3.8-1.5-4.3-.1-.4-.1-.8-.2-1 0-.1-.2-.9-.4-1.7-.1-.8-2.6-9.2-5.4-18.5-2.8-9.4-5.1-17.6-5.1-18.1 0-.8-7.5-1.1-23.5-1.1H100l-2.4 8.1zm25.8 76.3c1 6.4 1.4 8.1 2.5 11.5.9 2.9 1.3 5 2.6 12.3.2 1.1.4 2 .5 2 .2 0 .5 1.6 1.4 6 .3 1.6.8 4.1 1.1 5.4.2 1.3.7 4.9 1.1 8 .3 3.1.8 6.5 1 7.6.6 3.1 1.7 10.9 1.7 12.2 0 .7.8 1.3 1.8 1.3s2 .4 2.3.8c.5.8 1.3 6.9 2.2 15.2.6 6.1 1.5 12.5 1.9 13.7.2.6-.5 1.3-1.6 1.6-1 .3-1.7.1-1.3-.4.3-.5 0-.9-.6-.9s-.9-.4-.6-.9c.3-.5-.1-1.4-.9-2.1-1.9-1.6-1.9-2.9.1-5.1 2.8-3.1 1-4.6-2-1.6-2.7 2.7-4.2 3.6-3.1 1.7.4-.6.1-1.8-.6-2.6-1.9-2.2-2.6-.1-2.4 6.4l.3 5.7h-16.4c-14.2 0-16.3-.2-15.8-1.5.5-1.4.9-2.6 1.8-6.8.2-.9.9-3.7 1.6-6.2.7-2.5 1.4-5.6 1.7-7 .2-1.4 1-5 1.8-8s1.6-6.6 1.9-8c.2-1.4 2.1-9.7 4.1-18.5 2-8.8 4-18 4.5-20.5s1.2-5.6 1.5-7c.3-1.4.8-3.9 1.1-5.5.3-1.7.7-3.5.8-4 .2-.6.6-2.7 1.1-4.8.4-2 1.1-3.7 1.5-3.7.4 0 1.1 1.7 1.4 3.7zm13.3 95.5c.9 2 .7 2.3-1.2 2.4-1.6.1-2.2-.3-2-1.5.2-.9.4-1.9.4-2.4.2-1.5 1.8-.6 2.8 1.5zm464.7-113.4l.1 66.7 3.8.3c2 .2 3.7.9 3.8 1.5 0 .7.2 2.5.3 4 .3 4.5-.6 5.1-9.2 5.1-8.3 0-8.3-.1-7.3 4.7 0 .4 1.7.6 3.6.5l3.5-.1.1 5c.2 8 .2 8 3.4 8.1 7.9.4 7-2.9 7 27.6v27.3l9.7.1c5.4 0 10.1.3 10.5.8.4.4.8 3.1.8 5.9l.1 5.3-9.1-.2c-4.9-.1-9.7 0-10.5.2-1.3.3-1.5 3.4-1.4 20.6.1 11.2.2 20.8.3 21.3 0 .6 3.2 1 7.5.9 6.8-.1 7.5.1 8 2 .5 2.2.7 2.2 35.5 2.2 34.9.1 35 .1 35.3-2 .3-2.1.6-2.1 30.8-2.3 16.8-.1 31.4-.2 32.5-.2 1.8-.1 2.1-.8 2-6.1 0-5.9-1.5-8.7-3.8-7.3-.8.5-6.3.6-12.1.4-.9-.1-1.3-1.2-1.2-3.4.2-1.8.7-3.1 1.4-2.9.7.1 1.2-.1 1.2-.5 0-.5 3.3-.8 7.2-.8h7.3l.1-14c0-7.7-.2-14.5-.5-15-.3-.6-1.5-1-2.6-1-1.9 0-2-.7-2.1-22.5-.1-12.4-.2-23.3-.3-24.3-.1-1.6-1.9-1.7-26-1.7l-25.9.1.2 27.2.1 27.2-3.7.1c-2.1 0-4 .3-4.3.5-.3.3-2.7.3-5.5-.1-2.7-.4-5-.4-5.1-.1-.3 2.4-.8 4.4-1.3 4.9-.7.6-27.5 1-29.3.4-1-.3-1.2-9-1.1-38.6.1-20.9.5-38.8 1-39.8.7-1.5 3.1-1.6 23-1.3 12.3.1 23.3.3 24.4.4 2 .1 2.1.6 1.9 6.7-.1 4.5.2 6.7 1 7 .7.3 12.3.6 25.9.7 24.4.2 24.6.2 24.6 2.3 0 2.5 1.2 3.1 5.8 2.9 2.2-.2 3 .1 2.4.9-.5.6-1 2.9-1.1 5.1-.3 4.7-.7 5.3-2.3 3.7-.7-.7-1.6-1.2-2-1.2-1.4 0-.9 2.7.7 4 .9.7 1.5.8 1.5.2 0-.5.8-.8 1.9-.5 2.1.5 3.1-1.9 3.1-8.3v-4.1h7.2c7 .1 7.2.1 7.9-2.6.7-2.6-.4-4.7-1.5-2.8-.4.5-1.8.6-3.3.2-2.1-.6-3-1.6-3.8-4.7-1.4-5.4-4.7-11.3-8.9-15.9-2-2.2-3.6-4.3-3.6-4.7 0-.3-2.5-1.4-5.5-2.3-3-1-5.5-2.2-5.5-2.6 0-.5-.6-.9-1.4-.9-.8 0-1.6-.3-1.8-.8-.5-1.2-10.9-7.5-12.4-7.5-2.3 0-1.7-1 3.8-6.2 5.3-5.1 13.6-16.9 15.5-22.1 3.5-9.3 3.5-9.2 3.5-28.4 0-17.5-.9-23.1-5.8-36.1-4.6-12.2-10.6-19.6-20.4-25.2-5.1-3-13.2-6.3-17.2-7.2-.9-.2-2.5-.8-3.6-1.4-1.1-.6-22.2-1.2-55.3-1.5l-53.5-.6v66.8zm83.1-18.4c10.5 1.6 14.3 5.4 16.3 16.6 1.2 6.5.7 27.5-.7 31.1-.5 1.5-.7 2.9-.5 3.2.9.9-2.7 7.1-5.5 9.5-3.8 3.3-8.3 5.1-13.8 5.7-10.5 1.1-23 1.3-24.4.4-.8-.5-.9-.9-.2-.9.6 0 1-.8.8-1.8-.2-.9-.4-1.7-.5-1.7-.1 0-.2-1.4-.3-3.2-.1-1.7.1-2.9.5-2.6.5.2.4-.7-.2-2.1-.6-1.6-.6-2.7 0-3.1.7-.4.6-1.3 0-2.5-.6-1-.7-2.1-.3-2.3.5-.3.8-11 .8-23.9l-.1-23.4 11.6.2c6.3 0 13.8.4 16.5.8zm-49.8 96.5c1.7.2 1.2 4-.7 4.5-.8.2-6.4.3-12.5.2-10.2-.1-11-.3-11.1-2.1 0-1.1.1-2.3.3-2.6.2-.5 19.9-.6 24 0zm-25.4 8c.4.1.7.5.7 1.1 0 .5-1.6 1-3.5 1-2.5 0-3.5-.4-3.5-1.5 0-1.2.7-1.4 2.8-1.1 1.5.2 3 .5 3.5.5zm-.3 5.8c0 .8-1.2 1.3-3 1.3s-3-.5-3-1.3 1.2-1.3 3-1.3 3 .5 3 1.3zm286.5-158c-.8.2-1.1 47.6-.5 117.9v6l11.8-.1c15.4-.1 15.2-.1 15 4.6-.1 2.8-.6 3.9-1.7 4-.9 0-7 .1-13.6.2l-12 .2V869c0 37.1.2 69.3.5 71.5l.5 4h9.2c5.1 0 9.3.4 9.3.9s.6.3 1.3-.3c.8-.6 1.6-.8 2-.5.9 1 22.9.6 23.9-.4.6-.6 1-29.2 1.1-70.3l.2-69.4 2.8.2c1.5.1 2.8-.1 2.9-.5.1-.4.2-31.1.3-68.3l.2-67.6h-26.1c-14.4 0-26.5.2-27.1.4zm150.4-.3c-.1 0-.2 10.3-.3 22.8l-.1 22.8 5 .1h49v230.4l25 .1c16.1.1 25.2-.2 25.7-.9 1.4-2.2-.5-3.8-4.1-3.7-5.9.3-6.1.2-6.1-3.4 0-3.4 0-3.4 5-3.8 2.8-.1 5 0 5 .4s1 .4 2.2-.1c2.1-.8 2.2-1.4 2.4-11.2.1-5.7.2-10.5.3-10.5 0-.1 1.9.2 4.1.6 2.2.4 4.2.5 4.4.2.7-.7 9.5-.6 10.2 0 1.4 1.5 4.2-.6 4.6-3.3.3-1.7.2-3.1-.1-3.3-.3-.2-5.8-.3-12.1-.2l-11.6.1.1-95.5v-95.5h26.8c23 0 26.7-.2 26.8-1.5 0-.8.2-2.5.3-3.8.2-1.2 0-2.2-.3-2.2s-.6-1.1-.6-2.5.2-2.5.5-2.5c.8 0 .4-11.5-.4-12.8-.4-.7-.3-1.2.2-1.2s.8-1 .6-2.3c-.1-1.2-.3-2.2-.4-2.2-.1 0-.3-1.2-.4-2.8-.1-1.5.1-2.7.4-2.7.7 0 .5-7.4-.3-8.6-.4-.7-29.4-1.1-81.1-1.1-44.3 0-80.7 0-80.7.1zM1153.1 906c.1.3.2 1.6.3 3 .1 2.5 0 2.5-9 2.6l-9 .1.2-3.1c.1-1.7.2-3.1.3-3.2.6-.4 17.1.2 17.2.6zM398.7 669.6c-.1.1-4.9.4-10.7.8-12.8.8-15.5 1.2-22.8 3.7-3.1 1.1-6.1 2.1-6.7 2.3-9.2 2.5-23.3 15.2-28.4 25.6-1.7 3.6-3.3 7.5-3.6 8.8-.2 1.2-.6 2.6-.9 3-.5.9-1.2 4-2.5 12.3-.8 4.8-.6 22.3.3 27.4 2 11.6 7 24 12.7 31.1 1.7 2.1 6.4 7.4 10.5 11.6 4 4.3 7.3 7.9 7.1 7.9-.1.1-4.9.3-10.7.4-5.8.2-11.1.3-11.7.4-.8.1-1.3 1.4-1.3 3.1v3.1l26-.2c14.3-.2 26.3.1 26.7.4.4.4.8 5.1 1 10.5.1 5.3.4 10.1.5 10.7.1.6 8 1 21.5.9l21.3-.1v3.1c.2 10.3 0 52.3-.3 58.6l-.2 7.5h-57v-22.7c0-12.6-.2-22.8-.5-22.8-1.3-.1-34.8-.1-44.7-.1l-11.3.1v2.9c0 3.5.7 3.8 9.8 3.6l7.2-.1v9.4l-8.2-.1-8.3-.2-.1-4.5-.1-4.5-9.1-.1c-5.1 0-9.2.3-9.3.8-.1.4-.1 1.7-.1 2.8 0 6-.5 5.7 9.2 5.6l9-.2.1 5.1c.1 2.7.2 9.4.3 14.7l.1 9.8 4.5.1c2.5.1 5 0 5.5-.1.6-.1 4.8-.2 9.5-.3l8.5-.1.3 14.4c.3 17.4.3 20.5.1 21.6-.1.5-.1 2.3 0 4l.1 3h61.5l61.5.1.1-6.6c.2-10.2.7-33.5.8-34.7.1-.6 2.6-1 6.7-1 3.6.1 6.8-.3 7.1-.8.3-.4.7-19.2.9-41.7l.4-40.9h-4c-4 0-4 0-4-4v-3.9h-39.3l-24.8-.1.3-3.2.3-3.3 16-.1c8.8-.1 19-.3 22.8-.3 3.7-.1 6.7-.4 6.7-.9 0-1.6-24.9-16.2-27.6-16.2-.8 0-1.4-.5-1.4-1 0-.6-.6-1-1.2-1-.7 0-9.4-4-19.4-9-20.3-10-25-13.6-29-22.5-4.6-10-2.9-27.1 3.3-32.6 5.4-4.7 10.9-6.2 23-6.2 17.5 0 26.2 7.3 28.8 24.3.9 6.2 1.7 7.2 5 6.5 3.2-.7 13.1-1.5 26-2.1 6.6-.3 12.3-1.1 12.7-1.7.3-.5.5-2 .3-3.1-.2-1.2-.6-4.6-1-7.6-1.1-8.8-1.2-9.2-2.8-14.8-2.2-7.2-6.5-16.9-9.8-21.7-3.3-5-11.2-12.8-14.8-14.6-1.4-.8-2.8-1.6-3.1-1.9-1.1-1.1-6.6-3.3-7.7-3.1-.7.1-1.3-.4-1.3-1 0-.7-.3-.9-.6-.6-.4.3-1.6.1-2.7-.4-1.1-.6-3.1-1.3-4.6-1.5-6.9-.9-27.8-2.3-28.4-1.8z"/><path d="M881.1 793c-1.3.9-.8 8 .6 8.1h5.8c8 0 7.6.3 7.3-4.3l-.3-4.2-6.3-.1c-3.5 0-6.7.2-7.1.5zm-407.7 12.7c-.2.7-.6 2-.9 2.8-.2.9.2 1.8 1 2.1 2.4 1 15.8 1.1 17.8.2 1.9-1 2.4-5.8.5-5.9-10.3-.7-18.1-.3-18.4.8zm-433.4 8c.1.5.7 1.9 1.4 3.2 1.2 2.1 1.2 2.8-.2 4.9-1.1 1.7-1.2 2.6-.4 3.4.8.8 1.4.4 2.3-1.6l1.3-2.7 1.2 2.2c.6 1.2 1.9 2.3 2.7 2.5 1.4.2 1.4-.1 0-3.2-1.4-2.9-1.5-3.7-.3-5.9 1.8-3.3.3-4.6-2-1.7-1.8 2.2-1.9 2.2-2.5.2-.6-1.9-3.5-2.9-3.5-1.3zm-40 9.2v4l18.3-.1 18.2-.1-.1-3.6-.1-3.6-18.2-.3L0 819v3.9zm204.6-.2c-1.3 1.4-.5 2.1 1.9 1.7 1.4-.2 2.5-.2 2.5 0 0 1.4-4.4 7.6-5.3 7.6-.7 0-.7.4.1 1.2 1.6 1.6 9.4 1.9 8.9.4-.2-.6-1.6-1.1-3-1-2.9 0-2.9.1 2-7.1.7-1.1 1.3-2.2 1.3-2.5 0-.8-7.6-1-8.4-.3zm481.8 13.2c-.2.2-1.6.4-3.1.5-2 .1-2.9.7-3.1 2.2-.3 2 .1 2.1 12.5 2 12.5-.1 12.8-.1 12.9-2.4.1-1.8-.4-2.2-3-2.3-1.7 0-6-.1-9.4-.2-3.5-.1-6.5 0-6.8.2zM204.3 844c0 4.3.4 6 1.4 6 .7 0 1.3-.9 1.3-2s.5-2 1.1-2c.6 0 1.3.9 1.6 2 .3 1.1 1.2 2 1.9 2 1.7 0 1.8-2.2.3-3.7-.8-.8-.8-1.3 0-1.7 1.7-1.1 1.3-5.3-.5-6-.9-.3-2.8-.6-4.3-.6-2.8 0-2.8.1-2.8 6zm5.4-3.2c1.3.8.5 2.6-1.4 2.9-.7.2-1.3-.6-1.3-1.7 0-2.1.7-2.5 2.7-1.2zm-6 14.8c-1.1 1.1.3 2.4 1.8 1.7 1.2-.4 1.5.5 1.5 4.6 0 3.9.4 5.1 1.5 5.1s1.5-1.2 1.5-4.6c0-3.7.4-4.7 2-5.1 1.1-.3 2-.9 2-1.4 0-1-9.3-1.2-10.3-.3zm557.6 3.4c-1.8.7-2.1 1.6-2.1 6.4l.1 5.6h3.3c6.4 0 8.4-8 2.9-11.5-1.3-.9-2.8-1-4.2-.5zm4.3 4.5c.5 2.9-.5 5.5-2.2 5.5-1 0-1.4-1.2-1.4-4.1 0-3.2.3-4 1.7-3.7.9.2 1.8 1.2 1.9 2.3zm-347.2 1.3c-.6.4-1 2.7-.9 5.1.1 4.2.3 4.5 3.2 4.8 1.7.2 3.4-.1 3.8-.7.4-.6-.4-1-1.9-1-1.6 0-2.6-.6-2.6-1.5 0-.8.3-1.4.8-1.4 1.9.3 3.3-.2 2.7-1.1-.3-.5-1.3-.6-2.2-.3-1.1.4-1.4.2-1.1-.8.2-.7 1.5-1.6 2.9-2 1.3-.4 2-.8 1.4-.9-.5-.1-1.9-.3-3-.5s-2.5-.1-3.1.3zm-214.6 7.4c-.3.7-.1 2 .3 2.8.4.8 1 2.7 1.3 4.2.7 3 3.3 6.1 4.6 5.3.5-.3 1.2-2 1.6-3.7.3-1.8 1.1-4 1.8-5 .8-1.3.7-2.1-.2-3-1.6-1.6-3.2.4-3.2 4.1 0 2-.2 2.1-1.5 1.1-.8-.7-1.5-2-1.5-3 0-2.3-2.6-4.6-3.2-2.8zM760 875c-.4.3-.8 3.1-.9 6.2-.1 4.5.2 5.8 1.4 5.8.9 0 1.5-.9 1.5-2.5 0-2 .5-2.5 2.5-2.5 3.1 0 3.3-1.7.3-2.2-3.2-.5-3.5-2.8-.4-2.8 1.4 0 2.6-.6 2.6-1.3 0-1.2-5.3-1.7-7-.7zm-342.6 3.2c.3.7 1.1 3.2 1.8 5.6 1.4 4.8 2.9 5.1 3.4.7.2-1.6.8-3.1 1.4-3.3.5-.2 1-1.3 1-2.5-.1-2.2-.1-2.2-2.1.2-1.7 2.1-2.2 2.2-3 1-.5-.7-.9-1.7-.9-2.2 0-.4-.5-.7-1.1-.7-.6 0-.8.6-.5 1.2zm277.9 5.2c.2.6 1.4 1 2.5 1 2.8-.2 2.8.3-.3 4.8-1.4 2-2.5 4.1-2.5 4.5 0 .6 4.9.9 8.3.4 1.9-.3.4-2.1-1.8-2.1-1.9 0-2.3-.4-1.8-1.8.4-.9.9-1.9 1.3-2.2.3-.3 1.3-1.7 2.2-3.1l1.7-2.7-5 .1c-3.1 0-4.8.4-4.6 1.1zM95 885.9c-7.5 2.3-7.7 4.3-.5 7 6.8 2.5 6.5 2.5 6.5.2 0-1.4-1-2-4.2-2.6l-4.3-.8 4.4-1.3c5.1-1.6 5.2-1.6 4.3-3.1-.5-.7-2.3-.6-6.2.6zm110 4.3c-1.4 2.4-1.6 3.6-.9 5.7 2 5.1 7 5.7 9.4 1.2 3.6-7-4.5-13.5-8.5-6.9zm6.2 2.8c.4 2.8-.6 5-2.4 5-1.5 0-2.6-3.5-1.7-5.8 1.2-3.2 3.6-2.8 4.1.8zm446.4-3.4c-.4 1 .3 1.8 2.2 2.4 6.8 2.5 6.9 2.6 2.5 3.3-4 .7-6.2 2.2-4.9 3.4.7.7 11.4-2.6 12.1-3.7.7-1.1-2.3-4-4.1-4-.8 0-2.8-.7-4.4-1.5-2.5-1.3-2.9-1.3-3.4.1zm-629.9 1.1c-.2.5-1 2.6-1.7 4.8-.7 2.2-1.7 4.6-2.3 5.2-.7 1-.4 1.3 1.1 1.3 1.1 0 2.3-.7 2.6-1.6.6-1.5.8-1.5 3.1 0 4.7 3.1 4.9 1.8 1.4-7.2-1.3-3-3.2-4.2-4.2-2.5zm2.6 6.6c-.3.5-1 .4-1.5-.1-.6-.6-.7-1.6-.3-2.2.6-.9.9-.9 1.6.1.4.7.5 1.7.2 2.2zm385.7-6.6c-1.1.3-1.4 1.5-1.2 5.3.4 4.7 2.2 7.3 2.2 3 0-1.1.5-2 1-2 .6 0 1 .9 1 2 0 3.1 1.8 2.4 3.4-1.3 1.3-2.8 1.4-2.9 1.3-.7-.1 1.4.2 2.5.8 2.5.5 0 1.1-1.9 1.2-4.3.4-5.2-2.1-5.9-4.1-1.1l-1.3 3.1-1.4-3.4c-.9-2-2-3.2-2.9-3.1zM242.6 902c-.1.3-.2 9.9-.2 21.5l.1 21h39v-43h-19.3c-10.7-.1-19.5.2-19.6.5zm283.3-.5c-.4.1-.6 40.2-.3 41.6.4 1.3 3 1.5 18.9 1.6 12.4 0 18.5-.4 18.8-1.1.2-.6.3-10.3.2-21.6l-.1-20.5h-18.7c-10.3-.1-18.8-.1-18.8 0zm290.2.7l-3 .8.4 18.3c.2 10 .4 19.4.4 20.8l.1 2.6h17.8c9.7 0 18.2-.4 18.8-.8.7-.6 1-8 1-21.6l-.1-20.8h-16.2c-8.8 0-17.5.3-19.2.7zm171.1.2c-.5.6-.8 10.3-.7 21.6v20.5h39v-43l-18.8-.1c-12.1 0-19 .4-19.5 1zm-519.4 4c-.2 1.2-.1 3.6.1 5.3.3 3 .6 3.3 3.7 3.3 3.4 0 3.4-.1 3.4-4.4 0-4.7-.7-5.6-4.5-6.1-1.8-.1-2.5.3-2.7 1.9zm5.2 1.7c0 .5-.7.9-1.5.9s-1.5-.7-1.5-1.5c0-.9.6-1.2 1.5-.9.8.4 1.5 1 1.5 1.5zm0 3.9c0 .5-.7 1-1.5 1s-1.5-.5-1.5-1c0-.6.7-1 1.5-1s1.5.4 1.5 1zm-5.1 7c-.1.5-.1 2.1-.1 3.5 0 6.3.1 6.8 1.6 5.6.8-.6 1.1-2.3.9-3.9-.5-2.5-.3-2.4 2.3 1.2 3.1 4.5 4 3.7 3.9-3.1-.1-4.4-2.5-5.9-2.5-1.6l-.1 2.8-2-2.8c-2.1-2.7-3.8-3.5-4-1.7zm-318.5 22.2c-1.4 2.2 1.7 3.3 8.4 3.2 3.9-.1 7.5-.5 8.1-.8.6-.4 1.1-.4 1.1.1 0 .4 1.6.8 3.5.8s3.5-.4 3.5-.8c0-.5.6-.5 1.2-.1 1.8 1.1 4.8 1.2 4.8.2 0-.5.8-.5 1.8 0 1.9.9 13.1.8 15.4-.1.8-.3 2.1-.1 2.9.3.8.5 1.9.4 2.6-.2.7-.6 1.3-.7 1.3-.2 0 .5 1.6.9 3.5.9 2.9 0 3.5-.4 3.5-2.1 0-2.1-.2-2.1-30.5-2.1-16.8 0-30.8.4-31.1.9zm856.3 48.4c-.1.1-2.2.3-4.7.5-2.5.1-4.9.5-5.5.8-.5.3-1.6.6-2.4.8-3.7.5-14.2 6.7-18.7 11.1-4.7 4.5-10.2 12.4-10.8 15.4-.2.7-.8 3.3-1.5 5.8-1.5 4.9-1.9 20.2-.8 26.5 1.2 6.4 3.8 13.7 5.8 15.9 1.1 1.1 1.9 2.4 1.9 3 0 2.9 13.5 12.6 21.3 15.3 6.8 2.4 7.7 2.5 18.4 2.8 10.5.4 19.2-1.2 27.8-4.9 2.2-1 4.5-1.9 5-2 .6-.2 2.6-1 4.5-2l3.6-1.8-.1-9.1c-.1-11.8 0-12.4 4-13.1 3.1-.6 4-2.4 2.3-4.2-.7-.6-21.4-.7-28.7-.1-3.3.3-5.1 1.9-3.4 3 .5.3 3.1.8 5.8 1.1 6.7.8 7.8 2.2 8 10.3.3 9.9-1.2 13-7.9 15.8-13.3 5.6-29.6 2.4-39.6-7.7-4.4-4.4-8.3-9.5-7.8-10 .1-.2-.5-1.7-1.4-3.3-2.7-5.2-3.7-7.9-4.4-12.5-3.4-19.9 4.4-40.2 18.6-48.6 3.1-1.8 5.2-2.6 11-4.1 7-1.8 17.4.5 27.1 6.1 7.1 4.1 8.2 5.7 8.5 13.2.4 7.7 1.9 10.6 4.1 7.5 2.9-4.2 3.3-25.5.5-28.3-1.4-1.4-3.2-.1-3.2 2.3 0 1-.2 1.9-.4 1.9-.3 0-3.9-1.3-8-2.9-4.2-1.6-9.5-3.2-11.8-3.6-4-.7-16.6-1.3-17.1-.9zm-851.4 1.7c-.2.4-.9.5-1.4.2-.5-.4-.9-.2-.9.3 0 1.2 2.5 3.3 3.6 3.1.5-.1 2.4-.1 4.3 0l3.4.1-.7 25.7c-.7 27.4-1.5 48.2-2 52.3-.2 1.4-.4 3.5-.5 4.7-.1 1.7-1 2.5-4.1 3.3-4.3 1.2-5.7 2.5-3.9 3.6 1.6.9 22.3 1.8 25.3 1 1.8-.4 2.3-1.1 1.9-2.6-.5-1.9-3.6-2.7-8.1-2.1-.8.1-2-.4-2.9-1.1-1.3-1.1-1.5-5.5-1.2-34 .2-18 .6-32.8.9-32.8.3 0 .5-2.5.5-5.5-.1-7 .8-8.6 2.5-4.3 1.6 4.2 3.6 8.9 5.4 13 .8 1.8 3.1 7.3 5.1 12.3 2 4.9 4.2 10.1 4.8 11.5.5 1.4 1.1 2.7 1.2 3 .4 1.3 1.9 5.1 4.7 12 1.7 4.1 3.5 8.6 4.1 10 1.7 4.4 2.6 6.3 5.3 12.5 1.5 3.3 2.8 6.3 2.8 6.7.3 1.9 1.9 1.9 3.6 0 1.2-1.2 1.8-2.2 1.4-2.2-.4 0 0-.8.9-1.8 1.9-2.1 8.5-16 12.7-26.7 1.7-4.4 3.5-8.9 3.9-10 1.2-2.6 5.5-13.8 5.7-14.5 0-.3.4-1.4.9-2.5.4-1.1 2.1-5.4 3.7-9.5s3.3-7.9 3.6-8.5c.4-.5.7-1.2.7-1.5.4-2.6 1.8-5.1 2.4-4.1.4.6.9 18.4 1 39.6l.2 38.4-4.3.3c-3.5.2-4.3.7-4.3 2.3 0 1.9.7 2 12 2.1 15 .1 20.5-.4 20.5-2.1 0-1.3-3-2.5-6.7-2.5-1.3 0-2.3-.3-2.4-.8-.1-.4-.3-2.1-.5-3.7-.7-4.5-1-79.5-.4-80.6.3-.4 2-.9 3.8-1.1 2.9-.2 5-2.3 3.7-3.6-.8-.8-23.8-.3-24.5.5-1.1 1.3-23.5 60.7-23.2 61.5.1.5-.3.8-.9.8-.5 0-.7.4-.4 1 .3.5.1 1-.5 1s-.9.4-.6.8c.6 1-3.6 9.4-4.8 9.6-1 .1-1.7-1.1-3.9-6.9-4.1-10.6-18.1-45.5-19.7-49-.9-2.2-3-7.4-4.5-11.5s-3-7.7-3.2-8c-.7-.8-25.5-.6-26 .3zm198.3-.3c-6.5 1.1-2.5 4 5.5 4h2.9v13.2c.1 7.3.2 26.2.3 42.1.2 15.8 0 29.2-.3 29.7s-3.1 1-6.2 1.1c-5.9.2-7.9 1.7-5.3 3.9 1.7 1.4 34.2.9 36.8-.6 2.9-1.6.3-3.4-5.4-3.7l-5.4-.4-.2-40.6c-.1-22.4 0-41.4.3-42.1.7-1.7 2.6-2.6 7.9-3.3 4.8-.6 4.6-.5 3.5-2.2-.6-1.1-4.3-1.4-16.2-1.5-8.4-.1-16.6.1-18.2.4zm119.4 0c-2.2.5-4.1 3-2.3 3 2.5.2 8.9 1.3 9.3 1.7.6.5.2 57.3-.4 67.3-.2 3.6-.5 9.1-.5 12.2l-.1 5.8h-5c-4.3 0-5 .3-5 1.9 0 1.1.4 2.3 1 2.6 1.4.9 26.1.8 28.3 0 .9-.4 1.7-1.5 1.7-2.4 0-1.9-.8-2.1-8.7-2.1l-5.3.1-.1-4.3c0-6.5 0-20.5.1-50.3v-27l3.3 3.6c1.7 2 4.3 5.1 5.7 6.9 2.5 3.2 4.1 5.2 8.3 10 1.3 1.4 4.7 5.5 7.7 9.2 2.9 3.8 5.7 6.8 6.2 6.8.4 0 .8.5.8 1 0 .8 13.4 17.5 16 20 .3.3 2.1 2.5 4 5s4 4.9 4.6 5.5c.6.5 2.8 3.2 5 6 2.1 2.7 5.4 6.6 7.1 8.5 1.8 1.9 3.3 3.8 3.3 4.2 0 .5.7.8 1.5.8s1.6-.3 1.6-.8c1.1-6.1 1.8-20.3 2.5-50.7.7-32 .8-33.8 1.7-35.2.4-.6.3-1.4-.2-1.8-1.7-1 0-3.5 2.4-3.5 5.2 0 7.8-3.3 3.3-4.2-5.2-.9-24.8-.2-26 1-1.8 1.8-.4 2.5 5.9 2.7 3.2.2 6.2.3 6.6.4 1 .1.6 68.1-.4 68.1-.4 0-2-1.6-3.5-3.6-1.6-2-3.8-4.6-4.9-5.8-1.2-1.2-3.9-4.4-6-7.1-2.2-2.7-4.7-5.7-5.5-6.6-.8-.9-2.2-2.5-3-3.5-2-2.5-10.2-12.6-11.5-14-1.3-1.5-2.5-3-11.5-14.4-4.1-5.2-8.3-10.4-9.2-11.5-1-1.1-2.4-2.9-3.1-3.9-1.3-1.8-2.8-2-12.4-2.1-6 0-12 .2-13.3.5zm184.9 0c-4.2 1-2.9 3.4 2.1 4 2.5.3 5 .8 5.5 1.2.6.3 1.2 3.5 1.4 7 .7 11.1.6 72.2-.2 75-.6 2.4-1.3 2.8-4.2 2.8-4.9 0-9.1 1.8-7.7 3.2 1.7 1.7 34.2 2.4 37.2.8 3.9-2.1.2-4.1-7.3-4.1-3.6.1-3.8-.1-3.7-3.2v-8c0-.6-.1-2.3-.3-3.7-.2-1.4-.1-2.9.2-3.4.8-1.6.7-6.6-.2-6.6-.4 0-.4-.8 0-1.8.5-.9.7-4.2.6-7.2-.3-5.2-.3-6.2-.3-9.3 0-.6-.1-2.3-.3-3.7-.2-1.4-.1-2.9.2-3.4.8-1.6.6-13.6-.2-13.6-.5 0-.5-.5-.2-1 .4-.6.8-4.5 1-8.8.2-4.2.4-8.2.4-8.9.2-2.4 3-4 6.5-3.7 3.8.2 5.5-1.1 3.8-2.8-1.2-1.2-30-1.8-34.3-.8zm119.1 0c-1.2.3-2.1.8-2.1 1.2.1.5.1 1.2.1 1.6 0 .5.6.9 1.3.9 2.1.1 6.9 1.2 7.5 1.7 1.3 1.3 2.1 15.6 1 17.8-.5 1-.5 1.8-.1 1.8.5 0 .8 1.2.7 2.7-.1 1.6-.3 2.8-.3 2.8-.1 0-.3 12.7-.5 28.3-.3 20-.8 28.7-1.6 29.8-.7.7-2.8 1.4-4.7 1.4-3.6 0-5.7 2.5-3.2 4.1 2.3 1.4 26.2 1.1 28.3-.4 2.9-2.2-.3-3.9-7.4-3.8h-6l-.1-10.7c-.1-21.4.2-63.7.4-65.2.8-4.5 2.1-3.7 11 6.8 5.1 6 10.3 12.3 11.7 14.1 1.4 1.8 3 3.8 3.5 4.4 1.4 1.6 23.9 29.1 27.9 34.1 1.7 2.2 3.8 4.6 4.6 5.5.8.9 3.5 4.1 6 7.1 5.2 6.3 10.2 11.2 10.8 10.5.8-.8 2.5-47.9 3.1-84.8.1-4.6.5-5.9 1.9-6.3 5.3-1.7 8.4-3.6 7.4-4.6-1-1-21.9-1.8-27.4-1-2.4.4-4.1 3.1-2 3.3 6.2.4 12.8 1.2 13.2 1.6.9.8.7 67.3-.2 67.3-1 0-4.4-3.8-10.9-12-2.3-3-5.1-6.3-6-7.5-.9-1.1-4.3-5.2-7.4-9-7-8.7-6.5-8.2-15.5-19.1-4.1-4.9-8.8-10.7-10.5-12.9-1.6-2.1-4.6-5.5-6.5-7.6l-3.5-3.8-11.2-.3c-6.1-.2-12.1-.1-13.3.2z"/></svg>