<svg width="40" height="40" fill="none" xmlns="http://www.w3.org/2000/svg"><path d="M21.425 18.887c0 .738-1.225 1.863-3.938 2.563-1.487.413-3.237.625-5.062.625-1.813 0-3.563-.212-5.038-.613-2.737-.712-3.95-1.812-3.95-2.575 0-1.3 3.5-3.187 8.988-3.187 5.5 0 9 1.887 9 3.188zm15.137-11.7c0 .75-1.237 1.875-3.962 2.563-1.5.4-3.25.6-5.038.6-1.787 0-3.524-.2-5.024-.6-2.726-.688-3.963-1.813-3.963-2.563 0-1.3 3.5-3.187 8.988-3.187 5.575 0 9 1.85 9 3.188zM18.206 31.154c-1.731.455-3.729.696-5.779.696-2.041 0-4.034-.24-5.764-.695-1.753-.464-3.146-1.126-4.162-1.926v3.59c0 2.275 4.446 4.123 9.928 4.123 5.493 0 9.94-1.848 9.94-4.123v-3.59c-1.017.8-2.41 1.462-4.163 1.925z" fill="#fff"/><path d="M17.956 23.266c-1.604.444-3.527.684-5.531.684-1.982 0-3.894-.235-5.529-.677-2.015-.526-3.507-1.31-4.396-2.256v4.834c0 1.474 1.849 2.754 4.64 3.49 1.525.401 3.348.634 5.286.634 1.951 0 3.774-.233 5.3-.634 2.793-.736 4.64-2.03 4.64-3.49V20.99c-.896.959-2.404 1.759-4.41 2.276zM33.06 11.568c-1.603.427-3.513.657-5.496.657-1.977 0-3.882-.23-5.508-.664-2.008-.506-3.521-1.302-4.421-2.265v4.853c0 .09.027.176.041.264 2.769.678 4.751 1.896 5.396 3.396 1.35.293 2.874.462 4.489.462 1.951 0 3.761-.232 5.3-.646 2.791-.723 4.64-2.002 4.64-3.476V9.3c-.903.961-2.421 1.759-4.441 2.268zm.271 7.873c-1.715.46-3.715.707-5.77.707-1.144 0-2.249-.1-3.317-.248v5.094c1.04.154 2.152.246 3.317.246 1.951 0 3.761-.232 5.3-.634 2.791-.736 4.64-2.016 4.64-3.49V17.53c-1.017.799-2.413 1.457-4.17 1.912zm.008 6.978c-1.748.456-3.744.696-5.78.696-1.136 0-2.248-.087-3.317-.232v5.087c1.038.153 2.153.238 3.318.238 5.494 0 9.94-1.835 9.94-4.124v-3.59c-1.015.8-2.407 1.462-4.162 1.925z" fill="#fff"/></svg>