<svg width="40" height="40" fill="none" xmlns="http://www.w3.org/2000/svg"><path d="M27.5 32.5h-15l-2.25 3a1.25 1.25 0 001 2h17.5a1.25 1.25 0 001-2l-2.25-3zm4.634-18.384l-7.5-7.5a1.25 1.25 0 00-.884-.366h-3.266l.702-2.105a1.25 1.25 0 00-1.725-1.522l-4.405 2.102a1.245 1.245 0 00-.155.088A10.985 10.985 0 0010 13.973V27.5c0 .331.132.65.366.884L11.983 30H15V17.5a1.25 1.25 0 012.5 0V30h10.517l1.617-1.616a1.25 1.25 0 00.235-1.443l-4.255-8.507c1.206.187 2.241 1.188 2.252 1.2a1.225 1.225 0 001.008.36 1.25 1.25 0 00.916-.55l2.5-3.75a1.25 1.25 0 00-.156-1.578z" fill="#fff"/></svg>