<svg width="40" height="40" fill="none" xmlns="http://www.w3.org/2000/svg"><path d="M28.505 16.192v-6.31a8.457 8.457 0 00-2.491-6.017 8.462 8.462 0 00-6.016-2.49 8.516 8.516 0 00-8.507 8.506v6.315a12.311 12.311 0 00-3.848 8.946C7.643 31.968 13.175 37.5 20 37.5c6.825 0 12.358-5.532 12.358-12.358a12.316 12.316 0 00-3.853-8.95zm-7.38 10.055v2.337a1.125 1.125 0 01-2.25 0v-2.337A2.409 2.409 0 0120 21.703a2.409 2.409 0 011.125 4.544zm5.129-11.75a12.282 12.282 0 00-12.513.003V9.881a6.264 6.264 0 016.257-6.256c1.67 0 3.243.651 4.425 1.831a6.217 6.217 0 011.83 4.425v4.617z" fill="#fff"/></svg>