<svg width="40" height="40" fill="none" xmlns="http://www.w3.org/2000/svg"><path d="M34.449 9.36L21.507 2.858a3.362 3.362 0 00-3.016 0L5.551 9.36a3.36 3.36 0 00-1.85 3.084c.118 5.367 1.654 19.22 13.99 24.577a5.809 5.809 0 004.62 0c12.335-5.357 13.871-19.21 13.99-24.577A3.365 3.365 0 0034.45 9.36zm-13.33 16.16v.73a1.125 1.125 0 11-2.25 0v-.418l-.083.002a2.443 2.443 0 01-2.239-1.474 2.395 2.395 0 01-.19-.945 1.125 1.125 0 112.25-.001c0 .046.017.086.05.12a.182.182 0 00.132.05c.712-.026 3.045-.195 3.075-1.33.01-.42-.783-.852-2.123-1.155-2.672-.609-3.967-1.793-3.85-3.517.065-.96.584-2.448 2.978-3.098v-.734a1.125 1.125 0 012.25 0v.42h.01c.676-.043 1.28.217 1.755.674.47.454.74 1.09.74 1.743a1.125 1.125 0 11-2.25 0 .167.167 0 00-.053-.125h-.046c-1.23 0-3.069.232-3.14 1.273-.029.444.699.85 2.106 1.17 2.613.594 3.916 1.74 3.873 3.409-.022.81-.395 2.5-2.994 3.206z" fill="#fff"/></svg>