<svg width="40" height="40" fill="none" xmlns="http://www.w3.org/2000/svg"><path d="M19.7 27.938l-7.5-8.75c-.475-.555-1.425-.555-1.9 0l-7.5 8.75A1.25 1.25 0 003.75 30h2.5v6.25A1.25 1.25 0 007.5 37.5H15a1.25 1.25 0 001.25-1.25V30h2.5a1.25 1.25 0 00.95-2.063z" fill="#fff"/><path d="M37.226 15.469l-10-12.5c-.475-.594-1.476-.594-1.952 0l-10 12.5a1.251 1.251 0 00.976 2.031h2.5v5.488l2.846 3.322a3.757 3.757 0 01.562 4.008A3.762 3.762 0 0118.75 32.5v3.75A1.25 1.25 0 0020 37.5h12.5a1.25 1.25 0 001.25-1.25V17.5h2.5a1.252 1.252 0 00.976-2.031zM27.5 27.34v.16a1.25 1.25 0 01-2.5 0h-.312a1.25 1.25 0 010-2.5h1.875a.626.626 0 000-1.25h-.625a3.128 3.128 0 01-3.125-3.125c0-1.395.925-2.565 2.187-2.965v-.16a1.25 1.25 0 012.5 0 1.25 1.25 0 010 2.5h-1.562a.626.626 0 000 1.25h.625a3.128 3.128 0 013.125 3.125A3.118 3.118 0 0127.5 27.34z" fill="#fff"/></svg>