<svg width="40" height="40" fill="none" xmlns="http://www.w3.org/2000/svg"><path d="M36.25 2.5h-4.713c-3.737 0-7.237 1.65-9.612 4.537L7.787 24.2c-.412.5-.375 1.225.075 1.688l2.238 2.237 3.387-3.387a1.26 1.26 0 011.775 0 1.26 1.26 0 010 1.774L11.875 29.9l2.237 2.238c.25.237.563.362.888.362.287 0 .562-.1.8-.288l17.162-14.137A12.395 12.395 0 0037.5 8.463V3.75c0-.688-.563-1.25-1.25-1.25zM22.5 20a2.507 2.507 0 01-2.5-2.5c0-1.375 1.125-2.5 2.5-2.5s2.5 1.125 2.5 2.5-1.125 2.5-2.5 2.5zm6.25-5A3.761 3.761 0 0125 11.25a3.761 3.761 0 013.75-3.75 3.761 3.761 0 013.75 3.75A3.761 3.761 0 0128.75 15z" fill="#fff"/><path d="M28.75 12.5a1.25 1.25 0 100-2.5 1.25 1.25 0 000 2.5zM10 31.775l-2.238 2.238a1.28 1.28 0 01-.887.362 1.28 1.28 0 01-.888-.362 1.26 1.26 0 010-1.776L8.225 30 10 31.775zm-4.145-9.159l5.242-6.366H7.5a1.25 1.25 0 00-1.119.691l-3.75 7.5A1.252 1.252 0 003.75 26.25h1.476a3.723 3.723 0 01.629-3.634zm11.529 11.529A3.76 3.76 0 0115 35a3.737 3.737 0 01-1.25-.227v1.477a1.25 1.25 0 001.809 1.119l7.5-3.75a1.25 1.25 0 00.69-1.119v-3.598l-6.365 5.243z" fill="#fff"/></svg>