<svg width="2372" height="1189" viewBox="0 0 2372 1189" fill="none" xmlns="http://www.w3.org/2000/svg">
<path d="M1227.71 194.168C763.098 455.217 459.523 422.892 308.987 347.528C152.282 569.861 -135.327 787.959 73.1237 741.5C333.688 683.426 499.487 664.67 711.681 766.546C935.494 874 1322.99 780.197 1581.99 741.5C1889.49 695.557 2137.63 995.407 2345.68 1188.05L2371.99 347.528C2024.91 -24.0311 1691.92 -66.6516 1227.71 194.168Z" fill="url(#paint0_linear_633_109)" fill-opacity="0.2"/>
<path d="M1227.71 166.168C763.098 427.217 459.523 394.892 308.987 319.528C152.282 541.861 -135.327 759.959 73.1237 713.5C333.688 655.426 499.487 636.67 711.681 738.546C935.494 846 1322.99 752.197 1581.99 713.5C1889.49 667.557 2137.63 967.407 2345.68 1160.05L2371.99 319.528C2024.91 -52.0311 1691.92 -94.6516 1227.71 166.168Z" fill="url(#paint1_linear_633_109)"/>
<defs>
<linearGradient id="paint0_linear_633_109" x1="1196.99" y1="28" x2="1196.99" y2="1403" gradientUnits="userSpaceOnUse">
<stop stop-color="#6989FE"/>
<stop offset="1" stop-color="#3C64F4"/>
</linearGradient>
<linearGradient id="paint1_linear_633_109" x1="1196.99" y1="0" x2="1196.99" y2="1375" gradientUnits="userSpaceOnUse">
<stop stop-color="#6989FE"/>
<stop offset="1" stop-color="#3C64F4"/>
</linearGradient>
</defs>
</svg>
