<svg width="151" height="120" fill="none" xmlns="http://www.w3.org/2000/svg"><g clip-path="url(#clip0_70_479)"><path fill-rule="evenodd" clip-rule="evenodd" d="M94.554 1.298c.045-.45.022-.907-.052-1.016-.315-.466-2.88-.343-5.972.286-5.608 1.142-10.678 3.756-15.512 7.998-.49.43-.655.486-1.193.4-.432-.069-.829-.007-1.29.201-.6.27-.687.275-.854.047-.276-.376-1.17-.795-1.692-.792-.658.003-1.212.33-1.64.965-.53.785-.49 1.592.117 2.418.477.649.484.685.246 1.255-.318.762-.31 1.338.025 1.906.268.454.265.465-.396 1.171-2.32 2.479-4.735 6.66-5.935 10.274-.9 2.712-1.156 4.053-1.258 6.592-.111 2.778.02 4.003.454 4.236.623.333.903-.048 1.295-1.76a39.076 39.076 0 013.458-9.38c1.067-2.03 3.327-5.374 4.521-6.69l.947-1.042.692.362c.52.271.847.336 1.31.259l.617-.103 13.997 14.003c7.699 7.702 14.23 14.113 14.513 14.249 1.216.579 2.721.182 3.548-.935.446-.602.56-2.04.215-2.707-.143-.277-6.58-6.814-14.302-14.528-7.723-7.714-14.017-14.111-13.986-14.217.03-.105.053-.536.05-.957-.005-.734.03-.79.845-1.395 1.948-1.443 3.465-2.25 5.835-3.11 2.892-1.047 6.374-1.678 9.303-1.684 1.423-.003 1.527-.027 1.656-.372.076-.202.188-1.436.247-2.742a93.76 93.76 0 01.19-3.192zM77.858 6.493c3.474-2.332 8.287-4.188 12.592-4.854.81-.125 1.752-.235 2.092-.244l.618-.015-.1 2.25c-.055 1.239-.128 2.344-.163 2.456-.043.142-.479.206-1.419.208-4.853.01-10.245 1.753-14.496 4.685l-1.517 1.046-1.016-.973-1.015-.972.322-.357c.441-.488 2.886-2.413 4.102-3.23zm-10.273 4.602c-.398-.36-.38-.8.046-1.099.39-.273.93-.15 1.196.273.126.2.072.364-.225.68-.46.49-.614.511-1.017.146zm.191 2.881c0-.12.796-1.016 1.768-1.988.973-.972 1.864-1.768 1.98-1.768.36 0 3.615 3.322 3.617 3.69.003.484-3.171 3.677-3.656 3.677-.256 0-.893-.53-2.04-1.695-.918-.933-1.669-1.795-1.669-1.916zm5.653 3.945l.893-.904c.49-.497.988-.904 1.104-.904.34 0 27.885 27.647 28.068 28.17.324.93-.652 1.951-1.637 1.713-.291-.07-5.156-4.82-14.433-14.09L73.429 17.92zM61.332 27.922a28.503 28.503 0 015.562-10.376c.512-.608.97-1.105 1.02-1.105.05 0 .293.195.542.433l.452.433-.861 1c-2.136 2.479-3.76 4.9-5.121 7.63C61.9 27.991 60.9 30.3 60.9 30.606c0 .122-.063.26-.14.308-.191.118.076-1.282.572-2.993zM50.18 28.994c.998-.998.889-2.42-.25-3.247-1.013-.738-2.345-.404-2.953.742-.484.912-.347 1.746.413 2.505.476.477.649.544 1.395.544s.918-.067 1.395-.544zm-1.725-.849c-.297-.183-.463-.793-.3-1.104.214-.409 1.06-.378 1.288.047.098.184.133.478.077.655-.11.344-.76.59-1.065.402zm30.448 1.557c0-.768-.295-1.305-.963-1.755-1.074-.724-2.47-.33-3.033.856-.907 1.91 1.287 3.83 3.033 2.653.668-.45.963-.987.963-1.754zm-2.778-.011c0-.36.098-.528.368-.628.451-.168.737-.071.946.32.24.449.197.614-.24.9-.556.364-1.075.078-1.075-.592zm-18.827 3.912c0-.84-2.31-3.57-3.56-4.208-.847-.432-1.29-.442-1.509-.033-.239.447-.079.735.582 1.05.84.401 2.127 1.668 2.797 2.754.322.52.726.992.9 1.047.388.123.79-.188.79-.61zm16.535-3.56c0-.278-.106-.51-.26-.57-.445-.17-1.418-.09-2.526.209-2.238.604-4.203 1.774-6.178 3.678-1.308 1.261-1.497 1.773-.776 2.102.384.175.496.105 1.678-1.038 2.09-2.02 3.897-3.054 6.112-3.5l.292-.058c1.216-.244 1.543-.31 1.629-.49.031-.066.03-.148.029-.26v-.073zm4.805 8.74c-.243-.633-3.572-1.596-6.455-1.866-1.029-.096-2.128-.164-2.443-.15-1.182.05-2.545.225-2.742.353-.243.156-.274.869-.045 1.01.089.055 1.544.121 3.234.147 3.202.05 4.499.24 6.382.935 1.445.534 1.789.564 1.996.177.098-.183.13-.455.073-.606zM64.2 40.752l-3.41-1.512c-1.876-.831-3.496-1.513-3.6-1.514-.163-.002-.806.706-3.271 3.598-.193.226-.642.753-1 1.17-.357.419-1.415 1.443-2.35 2.277a848.47 848.47 0 00-2.99 2.678c-.71.638-1.354 1.186-1.433 1.216-.08.03-.144 1.998-.144 4.373 0 4.152.013 4.326.327 4.494a.621.621 0 00.655 0c.313-.167.327-.342.327-4.072v-3.898l1.024-.967c.562-.532 1.92-1.758 3.018-2.724 1.224-1.077 2.77-2.678 4.002-4.143 1.727-2.053 2.06-2.374 2.38-2.293.206.051 1.45.571 2.766 1.155 1.316.585 2.442 1.062 2.502 1.062.06 0 .795 1.325 1.633 2.944l1.524 2.944.767.224c.422.123 2.407.618 4.412 1.101l3.645.878.525 1.152c.29.634.988 2.097 1.554 3.251.974 1.987 1.052 2.096 1.477 2.047.69-.08.656-.68-.13-2.363-2.14-4.577-2.439-5.14-2.807-5.3-.209-.09-2.173-.6-4.367-1.133-2.193-.532-4.046-1.029-4.117-1.105-.072-.075-.758-1.353-1.524-2.839L64.2 40.752zm19.782-.025c0-.677-.576-1.514-1.226-1.786-1.2-.501-2.273-.066-2.77 1.124-.298.716-.3.78-.032 1.482.319.835.85 1.251 1.749 1.372 1.14.153 2.28-.944 2.279-2.192zm-2.782.11c0-.283.117-.546.286-.645l.037-.022c.156-.09.233-.135.31-.136.076-.001.153.04.304.12l.036.02c.606.325.575 1.071-.055 1.31-.512.193-.918-.093-.918-.648zm37.326 43.708V67.519h-6.713v15.535h-1.799v1.093s.515-.012.852-.012h.867l.042 8.956.042 8.955 2.577.049c1.418.027 2.743.025 2.946-.004l.368-.052V84.545h.819zm-6.713-1.49h3.357v1.08s-1.064.01-1.719.012c-.656.003-1.638 0-1.638 0v-1.092zm39.127-9.806v-5.73h-20.3v5.73h6.712v28.813h3.193c2.717 0 3.192.012 3.192.012v-.573h-1.31v-.901s.512-.012.901-.012h.9v-2.62h2.984v-.818h-2.984v-23.9h6.712zm-91.927.586c-.874-3.357-2.633-5.187-5.673-5.904-1.288-.303-5.021-.305-6.52-.003-2.275.459-3.692 1.233-4.845 2.648-1.965 2.41-2.28 7.116-.695 10.367.352.722.925 1.472 1.782 2.333.695.698 1.253 1.273 1.242 1.278-.012.004-1.413 0-1.413 0h-1.637v.787s.596.024 3.393 0l3.237-.027.048 1.416.047 1.416h5.39v8.677h-7.204v-5.73h-7.04v.819h-2.291v1.146h2.282l.046 1.841.047 1.842 1.76-.029 1.76-.03v5.38h15.38l.045-2.649.045-2.648.9-.012.901-.012.043-5.198.043-5.198h-.493c-.22 0-.493.012-.493.012v-.982c.002.001.065.01 1.473 0 .277-.002.982 0 .982 0v-.818s-.445-.012-1.228-.012c-.898 0-1.227.012-1.227.012v.818l-4.011-.012h-4.011v-.811l2.987-.045 2.988-.044-1.015-.696c-.558-.383-1.663-.998-2.455-1.367-4.434-2.065-5.43-2.607-5.992-3.263-.71-.83-1.004-1.845-.892-3.083.177-1.944.965-2.639 3.119-2.746 2.523-.125 3.67.679 4.076 2.856l.192 1.033.91-.085c1.71-.158 4.185-.32 4.332-.283.192.048 0-1.792-.314-2.994zM39.127 91.912h2.128v1.158s-.86.026-1.31.012l-.818-.024v-1.146zM2.2 87.328h2.302v-.983H0v.982h2.2zm32.998 14.734v-5.403h-4.911v5.403h4.911zm35.198 0v-5.403h-4.748v5.403h4.748zm36.016 0v-5.403h-2.364c-1.3 0-2.388.055-2.417.123-.029.068-.028 1.283.002 2.701l.054 2.579h4.725zm21.774 0v-5.403h-4.912v5.403h4.912zm13.669-4.081v-.83h2.292v.83s-.318-.012-1.222-.012c-1.007 0-1.07.012-1.07.012zM22.51 101.992h3.847v-.491h-7.694v.491h3.847zm107.804 6.279c0 .436-.094.428-1.249-.103-.782-.36-1.237-.45-2.435-.484-.81-.023-1.732.024-2.049.105-2.043.517-3.65 1.892-4.234 3.624-.423 1.252-.463 3.23-.091 4.553 1.034 3.684 5.558 5.101 9.853 3.087l1.023-.48v-1.38c0-1.354.008-1.38.4-1.38.457 0 .617-.17.436-.463-.091-.147-.679-.189-2.158-.156-1.678.038-2.034.089-2.034.292 0 .18.225.259.843.295.951.055 1.034.176 1.038 1.533.003 1.003-.092 1.212-.723 1.603-.851.526-2.584.611-3.717.183-2.322-.878-3.757-3.777-3.251-6.567.422-2.329 1.692-3.819 3.624-4.252 1.114-.249 1.763-.143 3.043.497 1.375.687 1.574.951 1.538 2.042-.026.794.009.901.291.901.263 0 .338-.152.425-.86.057-.473.081-1.301.052-1.84-.041-.779-.111-.992-.339-1.035-.198-.038-.286.05-.286.285zm-106.185 3.532c-.473-1.073-1.247-2.976-1.415-3.479l-.177-.532h-1.773c-1.467 0-1.774.042-1.774.245 0 .159.173.253.492.266.67.028.776.047.886.157.104.104-.19 9.232-.324 10.086-.07.447-.158.529-.609.573-.336.032-.526.139-.526.296 0 .2.325.254 1.76.292 1.675.044 1.76.031 1.76-.286 0-.285-.106-.333-.72-.333-.635 0-.73-.049-.824-.421-.144-.573.09-9.94.245-9.777.113.119 1.574 3.655 3.62 8.765.46 1.148.894 2.087.964 2.087.272 0 1.313-1.93 2.019-3.744a3451.93 3451.93 0 001.659-4.277c.505-1.306.987-2.444 1.07-2.53.093-.095.152 1.78.152 4.871v5.026h-.573c-.467 0-.573.061-.573.332 0 .319.084.33 2.087.286 1.726-.038 2.088-.088 2.088-.291 0-.164-.198-.262-.6-.295l-.6-.05-.105-1.506c-.059-.828-.084-3.236-.056-5.352l.05-3.847.533-.052c.336-.032.532-.14.532-.292 0-.199-.276-.233-1.576-.194l-1.576.046-.48 1.228c-.264.676-.8 2.075-1.19 3.111-1.96 5.201-2.12 5.546-2.316 4.979-.06-.172-.276-.719-.48-1.214-.205-.495-.611-1.526-.903-2.292a59.774 59.774 0 00-.747-1.882zm23.695-3.52c.455 0 .634-.07.634-.246 0-.207-.381-.245-2.455-.245-2.033 0-2.456.04-2.456.236 0 .166.232.252.778.287l.777.05.044 5.361.043 5.362h-.821c-.715 0-.82.042-.82.331 0 .321.083.331 2.412.287 2.114-.04 2.419-.08 2.466-.323.042-.224-.098-.286-.735-.327l-.788-.05-.049-5.131c-.035-3.741.004-5.193.143-5.361.105-.127.477-.231.827-.231zm21.686 8.676c-.08 0-3.206-3.766-5.745-6.922l-1.8-2.239-1.679-.003c-1.383-.003-1.678.04-1.678.242 0 .226.234.293 1.024.289.261-.001.286.241.286 2.802 0 1.542-.05 3.963-.108 5.381l-.107 2.579h-.63c-.52 0-.628.056-.628.327 0 .309.109.327 1.964.327 1.856 0 1.965-.018 1.965-.327 0-.288-.11-.327-.9-.327h-.901l.005-5.116.005-5.116.364.424c.2.234 1.238 1.486 2.309 2.783 1.07 1.298 2.221 2.69 2.558 3.096a387.425 387.425 0 013.541 4.3c.193.246.422.447.508.447.214 0 .365-1.979.39-5.14.012-1.45.067-3.483.123-4.519l.102-1.882.532-.052c.33-.031.532-.14.532-.286 0-.191-.356-.235-1.883-.235-1.565 0-1.883.041-1.883.245 0 .189.21.246.9.246h.901v4.338c0 2.386-.03 4.338-.067 4.338zm16.528-8.676c.426 0 .533-.057.46-.246-.077-.202-.507-.245-2.45-.245-1.985 0-2.356.038-2.356.245v.006c0 .083 0 .14.025.18.054.084.22.097.739.136l.017.001c.295.022.59.093.655.158.159.158.256 7.878.119 9.374l-.108 1.179-.765.049c-.548.036-.764.119-.764.295 0 .204.383.253 2.284.291 2.484.05 2.752.012 2.607-.367-.067-.173-.32-.251-.816-.251h-.72v-6.264c-.002-3.407-.003-4.269.368-4.48.125-.071.293-.068.518-.064.059.001.121.003.187.003zm19.681 6.49a820.43 820.43 0 00-2.994-3.683l-2.623-3.217-1.756-.046c-1.429-.038-1.757-.003-1.757.186 0 .238.474.427 1.08.431.341.002.342.018.278 4.955-.036 2.724-.1 5.118-.141 5.32-.062.297-.188.369-.647.369-.46 0-.57.062-.57.327 0 .308.11.327 1.883.327 1.774 0 1.883-.019 1.883-.327 0-.287-.109-.327-.892-.327h-.891l-.013-4.994c-.01-3.95.03-4.991.195-4.983.115.005.982.968 1.927 2.14a184.474 184.474 0 001.964 2.408c.136.154.868 1.051 1.627 1.994 2.568 3.194 3.662 4.434 3.795 4.301.072-.073.19-2.67.262-5.773l.129-5.641.614-.145c.349-.082.614-.244.614-.374 0-.184-.389-.229-1.964-.229-1.607 0-1.965.043-1.965.237 0 .174.251.25.941.286l.942.05.044 4.297c.023 2.364-.013 4.294-.082 4.289-.111-.007-.71-.7-1.883-2.178zM94.017 72.346c-.72-2.292-1.509-3.662-3.976-4.488 0 0-1.045-.166-1.719-.242-2.557-.289-6.59-.061-6.59-.061l-6.589-.062v16.724h.983s-.005 1.228 0 1.31h-2.129v.655h.982v1.637h1.31v6.876h2.62v1.473h-2.62v5.34h1.965v.484s.114.07 4.42.07c4.236 0 4.42.012 4.42.012v-.573s1.547-.026 4.175 0l4.01-.012v-1.625h-2.128l-.021-.913h2.15v-3.753h-.655v-6.07s.471.024.655 0l1.391.013 1.064-.012v-.643h-.982c0-1.064-.917-2.3-1.477-2.918-.287-.316-.641-.532-.872-.532-.214 0-.675-.23-1.025-.513-.35-.281-.906-.635-1.236-.785l-.599-.273.906-.893c.55-.542 1.107-1.31 1.418-1.956 0 0 .365-.627.511-1.064.376-1.122.246-3.18.246-3.18-.001-2.248-.209-2.851-.464-3.592v-.003c-.047-.135-.096-.275-.144-.431zm-5.859 16.128l3.233.037 3.234.056v.562l-2.742-.023c-1.4-.01-2.277.01-2.825.023-.696.017-.862.021-.9-.07v-.585zm0 0v-1.788l-3.083-.048c-1.696-.026-3.115-.016-3.152.021-.037.038-.068 2.303-.068 5.034v4.966h1.965c1.855 0 1.964-.07 1.964-.07v-.614s.811.01 1.27 0h1.104v-3.661c0-2.139-.082-3.255-.082-3.255h-3.11v-.573s.178-.012 1.596-.012h1.596zm-12.032-2.947s1.469-.035 1.677-.035c.85.025 1.597.035 1.597.035v.655h-3.111v-.655h-.163zm5.811-3.563l.046-4.276.047-4.276 1.754.013c2.973.021 3.527.372 3.832 2.425.204 1.379-.02 3.955-.412 4.712-.133.256-.56.646-.95.865-.601.337-.984.409-2.513.467l-1.804.07zm-6.63 4.545h.901v.328h-.901v-.328zm.819.983h-.819v-.328h.819v.328zM18.502 68.214c.099.383.351 1.249.562 1.924.21.675 1.398 4.635 2.64 8.8l2.26 7.571h1.084v11.296H22.57l.022.913s.11-.011 1.269.036l1.187.048v2.277h-6.385v-6.827l-2.251-.099c-1.238-.055-2.914-.066-3.724-.026-.81.04-2.047.026-2.047.026v2.997h-3.11v4.912l-2.988-.006c-2.23-.003-2.404.013-2.415.017V97.15h2.456v-9.658h.982c.54 0 .982-.034.982-.076 0-.073 2.098-7.118 2.854-9.584.208-.675.989-3.272 1.737-5.77l1.36-4.543h5.824l.18.695zM2.128 102.073zm13.05-24.568s-.25 1.056-.443 2.047c-.33 1.7-1.478 6.814-2.094 9.331-.074.302-.16.619-.23.876-.076.28-.133.489-.133.528 0 0 .966.01 2.047.01h1.964l.034-.001v-1.44h.364v.666l.127-.192.326-.475h.45l-.51.668.454.752h.392l-.245-1.965a72.556 72.556 0 00-.246-1.953h-.49l-.558-3.981-1.162-5.023-.047.152zm1.927 12.77l-.268-.47-.15.164v.317l.418-.011zm35.931 3.04v-.221h-.584v-.33h.496v-.214h-.496v-.293h.585v-.222h-.872v1.28h.871zm-.666.357l.251.57.252-.57h.31l-.416.818v.462h-.291v-.462l-.417-.818h.311zm-.157 1.637h-.375v1.28h.287v-.331l-.029-.604.328.935h.192l.328-.935-.029.604v.331h.288v-1.28h-.376l-.307.915-.307-.915zm-41.08-.345v.398l1.512.51v-.408l-1.103-.3 1.103-.3v-.407l-1.513.507zm-5.558-8.828l-.266-.515h-.386l.431.75-.443.763h.391l.273-.525.275.525h.39l-.442-.763.43-.75h-.387l-.266.515zm21.043 1.882v.262h-1.166v-.185l.74-1.065h-.742v-.263h1.157v.18l-.734 1.071h.745zm-.533.713h-.581v1.513h.339v-.546h.222l.277.546h.362v-.015l-.322-.615a.58.58 0 00.113-.07.385.385 0 00.115-.144.501.501 0 00.04-.212.44.44 0 00-.068-.251.421.421 0 00-.197-.154.793.793 0 00-.3-.052zm-.242.704h.243c.05 0 .093-.01.126-.027a.175.175 0 00.075-.076.247.247 0 00.026-.116.252.252 0 00-.026-.119.172.172 0 00-.077-.076.26.26 0 00-.125-.027h-.242v.44zm.384 1.706v1.231h-.364v-1.23h-.445v-.282h1.264v.281h-.455zm-.21 3.36h-.135l-.507-1.513h.407l.3 1.103.3-1.103h.409l-.51 1.513h-.265zm.758 1.178v.061a.93.93 0 01-.049.312.677.677 0 01-.136.234.603.603 0 01-.209.15.678.678 0 01-.266.05.614.614 0 01-.615-.434.95.95 0 01-.048-.312v-.061a.95.95 0 01.048-.312.69.69 0 01.136-.235.586.586 0 01.209-.149.676.676 0 01.268-.052c.097 0 .186.018.266.052a.589.589 0 01.21.149.68.68 0 01.137.235.93.93 0 01.05.312zm-.37.061v-.063a.884.884 0 00-.02-.198.436.436 0 00-.056-.144.246.246 0 00-.216-.118.242.242 0 00-.217.117.454.454 0 00-.055.145.979.979 0 00-.018.198v.063c0 .074.006.14.018.198.012.056.03.104.055.144.025.04.055.07.091.09.037.02.08.03.128.03a.25.25 0 00.124-.03.25.25 0 00.09-.09.448.448 0 00.056-.144.896.896 0 00.02-.198zm69.075-6.518v1.044a.32.32 0 01-.022.124.175.175 0 01-.062.078.166.166 0 01-.093.026.224.224 0 01-.096-.018.125.125 0 01-.06-.065.334.334 0 01-.02-.127h-.338c0 .108.021.197.065.267s.105.121.183.155a.67.67 0 00.527-.01.461.461 0 00.252-.43v-1.044h-.336zm-.13 3.642h-.478V91.35h.477c.102 0 .196.017.28.052a.63.63 0 01.22.148c.063.065.111.14.145.229a.807.807 0 01.05.294v.067a.813.813 0 01-.05.294.638.638 0 01-.364.376.732.732 0 01-.28.053zm0-.262h-.14v-.989h.139c.056 0 .107.01.15.03a.273.273 0 01.112.087.4.4 0 01.067.144.763.763 0 01.023.198v.07a.696.696 0 01-.04.252.328.328 0 01-.12.156.336.336 0 01-.19.052zm-.14 1.351v-.375h.663v-.263h-1.001v1.513h.338v-.613h.596v-.262h-.596zm-7.205 1.556v.262H86.84v-.185l.74-1.065h-.742v-.263h1.157v.18l-.734 1.07h.745zm-4.349.284v.116l-1.513.516v-.376l1.126-.322-1.126-.322v-.377l1.513.518v.247zm-24.925 2.346v-.331h.225c.043 0 .076.007.102.02a.126.126 0 01.056.06.208.208 0 01-.001.173.137.137 0 01-.06.057.235.235 0 01-.108.021h-.214zm.512-.451a.293.293 0 01-.034.016.265.265 0 01.068.027c.05.028.085.064.107.11a.382.382 0 01-.021.352.324.324 0 01-.16.126.694.694 0 01-.258.042h-.5v-1.28h.453c.077 0 .146.007.206.02.06.015.112.036.154.066a.29.29 0 01.098.11.337.337 0 01.033.155.318.318 0 01-.035.146.26.26 0 01-.11.11zm-.512-.072h.167a.328.328 0 00.116-.017.132.132 0 00.067-.052.158.158 0 00.021-.084.178.178 0 00-.02-.092.12.12 0 00-.068-.051.336.336 0 00-.116-.017h-.167v.313zm.77 2.382v-1.28h-.285v.827l-.485-.827h-.286v1.28h.286v-.828l.484.828h.286z" fill="#080F4D"/></g><defs><clipPath id="clip0_70_479"><path fill="#fff" d="M0 0h150.941v120H0z"/></clipPath></defs></svg>