<svg width="24" height="24" fill="none" xmlns="http://www.w3.org/2000/svg"><g clip-path="url(#clip0_630_112)"><path d="M0 12C0 5.373 5.373 0 12 0s12 5.373 12 12-5.373 12-12 12S0 18.627 0 12z" fill="#2B77C1"/><path fill-rule="evenodd" clip-rule="evenodd" d="M13.21 8.874c.296-.01.59 0 .887-.003h.122V7.336c-.157-.015-.322-.038-.487-.046-.303-.014-.606-.029-.91-.022-.462.01-.9.122-1.282.397-.439.315-.68.758-.771 1.281a4.424 4.424 0 00-.054.656c-.008.345 0 .69 0 1.034v.13h-1.47v1.714h1.46v4.313h1.785V12.49h1.456l.223-1.723h-1.692s.004-.85.015-1.219c.015-.505.314-.66.719-.674z" fill="#fff"/></g><defs><clipPath id="clip0_630_112"><path fill="#fff" d="M0 0h24v24H0z"/></clipPath></defs></svg>