<svg width="24" height="24" fill="none" xmlns="http://www.w3.org/2000/svg"><g clip-path="url(#clip0_630_115)"><path d="M12 24c6.627 0 12-5.373 12-12S18.627 0 12 0 0 5.373 0 12s5.373 12 12 12z" fill="#262626"/><path fill-rule="evenodd" clip-rule="evenodd" d="M17.17 10.966h-1.173a4.135 4.135 0 11-7.998 0H6.827v5.686a.516.516 0 00.515.516h9.31a.516.516 0 00.515-.516l.002-5.687zm0-3.619a.516.516 0 00-.517-.515h-1.551a.516.516 0 00-.516.515v1.551a.516.516 0 00.515.516h1.55a.516.516 0 00.516-.516l.002-1.55zM12 9.415a2.585 2.585 0 100 5.17 2.585 2.585 0 000-5.17zm5.17 9.305H6.83a1.551 1.551 0 01-1.55-1.551V6.83a1.55 1.55 0 011.55-1.55h10.34a1.55 1.55 0 011.55 1.55v10.34a1.552 1.552 0 01-1.55 1.551z" fill="#fff"/></g><defs><clipPath id="clip0_630_115"><path fill="#fff" d="M0 0h24v24H0z"/></clipPath></defs></svg>