<svg width="28" height="28" viewBox="0 0 28 28" fill="none" xmlns="http://www.w3.org/2000/svg">
<path d="M13.0004 20.0734C12.7034 19.5803 13.4366 19.1302 13.7442 19.614L14.3392 20.5765L15.9181 19.2903L14.9425 13.8661L12.2567 16.7843L9.97338 17.042C9.84651 17.0551 9.72838 17.1295 9.65838 17.2345L8.36338 19.1988L9.43526 21.4292C9.47463 21.5123 9.48776 21.6086 9.47026 21.7005L9.13338 23.5467C9.01963 24.1093 8.1757 23.9619 8.27151 23.3892L8.58651 21.683L7.69838 19.8498L4.42676 21.1142C4.33051 21.1536 4.25176 21.2192 4.20363 21.3111L1.81095 25.5981C1.64207 25.8733 1.86782 26.2596 2.19157 26.25H11.7098L13.7398 21.2717L13.0004 20.0734Z" fill="white"/>
<path d="M18.2581 15.7513C18.2325 15.679 18.1852 15.6163 18.1225 15.572L15.8125 13.7611L16.8231 19.3909C16.8538 19.544 16.7925 19.7059 16.67 19.8065L14.5923 21.4996L12.6546 26.25H19.1331C19.2688 26.25 19.3956 26.1888 19.4788 26.0838C19.5619 25.9788 19.5925 25.8431 19.5619 25.7119L18.91 22.9819L20.0256 20.3971C20.0738 20.2878 20.0738 20.1653 20.03 20.0559L18.2581 15.7513ZM9.05883 14.9643C9.25133 15.029 9.46396 14.9433 9.57071 14.7674C10.7596 12.711 12.1661 10.7884 13.7659 9.03264L14.2996 9.56202C14.619 9.89102 15.1471 9.8827 15.4673 9.56202L15.7648 9.26452C15.9503 9.07639 16.3835 8.64764 16.5655 8.46389C16.877 8.15108 16.8866 7.61777 16.5611 7.30014L16.0317 6.76639C17.7875 5.16672 19.7101 3.76039 21.7665 2.57164C22.1602 2.35727 21.9633 1.69402 21.5083 1.75352C18.2193 2.03384 15.1352 3.46777 12.801 5.80193C10.4668 8.13608 9.03291 11.2202 8.75258 14.5093C8.73508 14.7149 8.86196 14.903 9.05883 14.9643ZM25.76 16.5388L22.358 13.3215L17.4711 8.70014C17.3967 8.84014 17.2961 8.97139 17.1823 9.08514C16.9133 9.32839 16.016 10.3171 15.7036 10.472L18.0831 12.9911L23.5379 18.7609C23.831 19.0715 24.2291 19.2421 24.6535 19.2509C26.0544 19.3078 26.7986 17.4799 25.76 16.5388Z" fill="white"/>
</svg>
