<svg width="24" height="24" viewBox="0 0 24 24" fill="none" xmlns="http://www.w3.org/2000/svg">
<g clip-path="url(#clip0_630_112)">
<path d="M0 12C0 5.37281 5.37281 0 12 0C18.6272 0 24 5.37328 24 12C24 18.6267 18.6267 24 12 24C5.37328 24 0 18.6272 0 12Z" fill="#2B77C1"/>
<path fill-rule="evenodd" clip-rule="evenodd" d="M13.2107 8.87393C13.506 8.86408 13.8009 8.87393 14.0971 8.87111H14.219V7.33643C14.0615 7.32096 13.8965 7.29799 13.7315 7.28955C13.4287 7.27643 13.1259 7.26143 12.8221 7.26846C12.3595 7.27736 11.9221 7.39033 11.5396 7.66455C11.1013 7.97955 10.8604 8.42299 10.7685 8.94611C10.7344 9.16323 10.7166 9.38259 10.7151 9.60236C10.7067 9.94736 10.7151 10.2919 10.7151 10.6364V10.7658H9.24463V12.48H10.7053V16.7925H12.4898V12.4899H13.9457C14.0203 11.9189 14.0929 11.3546 14.1693 10.7667C14.0521 10.7667 13.9471 10.7667 13.8412 10.7667C13.4273 10.7667 12.4771 10.7667 12.4771 10.7667C12.4771 10.7667 12.4813 9.91643 12.4917 9.54799C12.5067 9.04268 12.8062 8.88846 13.2107 8.87393Z" fill="white"/>
</g>
<defs>
<clipPath id="clip0_630_112">
<rect width="24" height="24" fill="white"/>
</clipPath>
</defs>
</svg>
