<svg width="24" height="24" viewBox="0 0 24 24" fill="none" xmlns="http://www.w3.org/2000/svg">
<g clip-path="url(#clip0_630_115)">
<path d="M12 24C18.6274 24 24 18.6274 24 12C24 5.37258 18.6274 0 12 0C5.37258 0 0 5.37258 0 12C0 18.6274 5.37258 24 12 24Z" fill="#262626"/>
<path fill-rule="evenodd" clip-rule="evenodd" d="M17.1692 10.9655H15.9973C16.1582 11.5774 16.1765 12.218 16.0509 12.8381C15.9253 13.4582 15.6591 14.0411 15.2728 14.5422C14.8864 15.0432 14.3903 15.4489 13.8226 15.7281C13.2548 16.0072 12.6306 16.1524 11.9979 16.1524C11.3652 16.1524 10.741 16.0072 10.1733 15.7281C9.6055 15.4489 9.10937 15.0432 8.72305 14.5422C8.33673 14.0411 8.07052 13.4582 7.94492 12.8381C7.81931 12.218 7.83765 11.5774 7.99854 10.9655H6.82666V16.6524C6.82666 16.7891 6.88099 16.9203 6.97768 17.017C7.07438 17.1137 7.20553 17.168 7.34229 17.168H16.6517C16.7884 17.168 16.9196 17.1137 17.0163 17.017C17.113 16.9203 17.1673 16.7891 17.1673 16.6524L17.1692 10.9655ZM17.1692 7.34722C17.1692 7.21046 17.1148 7.07931 17.0181 6.98261C16.9214 6.88592 16.7903 6.83159 16.6535 6.83159H15.1015C14.9648 6.83159 14.8336 6.88592 14.7369 6.98261C14.6402 7.07931 14.5859 7.21046 14.5859 7.34722V8.89831C14.5859 9.03506 14.6402 9.16621 14.7369 9.26291C14.8336 9.35961 14.9648 9.41394 15.1015 9.41394H16.6517C16.7884 9.41394 16.9196 9.35961 17.0163 9.26291C17.113 9.16621 17.1673 9.03506 17.1673 8.89831L17.1692 7.34722ZM11.9998 9.41534C11.4886 9.41534 10.9889 9.56693 10.5638 9.85094C10.1388 10.1349 9.80747 10.5386 9.61185 11.0109C9.41622 11.4832 9.36503 12.0029 9.46476 12.5043C9.56449 13.0057 9.81066 13.4662 10.1721 13.8277C10.5336 14.1892 10.9942 14.4353 11.4955 14.5351C11.9969 14.6348 12.5166 14.5836 12.9889 14.388C13.4612 14.1923 13.8649 13.8611 14.1489 13.436C14.4329 13.011 14.5845 12.5112 14.5845 12C14.5845 11.6606 14.5177 11.3245 14.3879 11.0108C14.258 10.6972 14.0676 10.4123 13.8276 10.1722C13.5875 9.93222 13.3026 9.74184 12.989 9.61196C12.6754 9.48209 12.3392 9.41528 11.9998 9.41534ZM17.1692 18.72H6.83041C6.41912 18.7199 6.02471 18.5564 5.73392 18.2656C5.44314 17.9747 5.27979 17.5802 5.27979 17.1689V6.83065C5.27979 6.4194 5.44315 6.025 5.73395 5.7342C6.02475 5.4434 6.41916 5.28003 6.83041 5.28003H17.1692C17.3728 5.27997 17.5745 5.32003 17.7626 5.39794C17.9508 5.47584 18.1218 5.59006 18.2658 5.73406C18.4098 5.87806 18.524 6.04902 18.6019 6.23718C18.6798 6.42534 18.7198 6.62701 18.7198 6.83065V17.1689C18.7198 17.3726 18.6798 17.5743 18.6019 17.7625C18.524 17.9507 18.4098 18.1217 18.2658 18.2657C18.1218 18.4097 17.9508 18.524 17.7627 18.602C17.5745 18.6799 17.3728 18.72 17.1692 18.72Z" fill="white"/>
</g>
<defs>
<clipPath id="clip0_630_115">
<rect width="24" height="24" fill="white"/>
</clipPath>
</defs>
</svg>
